<svg width="204" height="200" viewBox="0 0 204 200" xmlns="http://www.w3.org/2000/svg">
    <path
        d="M19.8894 143.671C52.6678 61.6914 97.5448 23.3954 137.452 26.4183C196.984 30.9277 207.489 87.5501 199.985 94.0641C190.912 101.94 157.896 114.693 159.097 60.1755C160.297 5.65763 181.976 1.86489 181.976 1.86489"
        fill="none" stroke-width="2.67" stroke-miterlimit="10" stroke-dasharray="5.34 5.34" />
    <path
        d="M14.3043 185.591L14.2864 185.589L14.2685 186.113C14.2561 186.476 14.263 186.776 14.294 187C14.309 187.109 14.3336 187.23 14.3811 187.339C14.4162 187.42 14.537 187.663 14.8307 187.712C15.1248 187.76 15.3175 187.569 15.3768 187.504C15.4568 187.416 15.519 187.309 15.5679 187.211C15.669 187.01 15.7718 186.728 15.8759 186.381L15.8762 186.38L23.9274 159.455L14.3043 185.591ZM14.3043 185.591L15.3212 161.092L15.3213 161.091C15.3938 159.454 16.7152 157.887 18.32 157.559L21.587 156.888L21.5875 156.888C22.3845 156.726 23.1298 156.875 23.6054 157.397C24.081 157.918 24.1618 158.675 23.9276 159.455L14.3043 185.591ZM44.6809 162.204L44.6799 162.205L14.0937 198.443L14.0867 198.449L14.0608 198.479C13.7202 198.88 13.5017 198.88 13.4466 198.866C13.3923 198.852 13.2004 198.748 13.095 198.23L13.095 198.23L0.786851 137.788C0.752237 137.618 0.738197 137.486 0.736217 137.387C0.817449 137.443 0.919921 137.527 1.04225 137.648C1.04256 137.648 1.04287 137.649 1.04318 137.649L14.604 151.258L14.6055 151.26C15.1046 151.756 15.8053 152.129 16.5247 152.348C17.2437 152.566 18.0327 152.646 18.7223 152.505C18.7223 152.505 18.7223 152.505 18.7223 152.505L36.6384 148.843L36.6384 148.843C37.1486 148.739 37.3364 148.871 37.3837 148.931C37.4305 148.99 37.5168 149.202 37.2978 149.675L37.2977 149.675L34.6534 155.382C34.653 155.383 34.6525 155.384 34.6521 155.385C34.3337 156.054 34.3285 156.767 34.6087 157.37C34.889 157.973 35.4367 158.429 36.1486 158.621L36.149 158.621L44.2281 160.794L44.231 160.795C44.701 160.918 44.901 161.151 44.9617 161.343C45.0224 161.536 44.9915 161.839 44.6809 162.204ZM0.755132 137.197C0.755199 137.197 0.754676 137.198 0.753365 137.201C0.754409 137.198 0.755065 137.197 0.755132 137.197ZM0.571719 137.3C0.568738 137.299 0.567143 137.299 0.567092 137.299C0.56704 137.299 0.568533 137.299 0.571719 137.3Z"
        stroke="none" />
</svg>
    