<svg width="30" height="27" viewBox="0 0 30 27" xmlns="http://www.w3.org/2000/svg">
    <path fill-rule="evenodd" clip-rule="evenodd"
        d="M0.5 2C0.5 0.89543 1.39543 0 2.5 0H20.25C21.3546 0 22.25 0.895431 22.25 2V10.1709C21.2599 10.3955 20.3382 10.8003 19.5211 11.349C19.439 10.6768 18.8662 10.1562 18.1719 10.1562H4.57812C3.82736 10.1562 3.21875 10.7649 3.21875 11.5156C3.21875 12.2664 3.82736 12.875 4.57812 12.875H17.8203C17.1537 13.6668 16.6349 14.5872 16.3067 15.5938H4.57812C3.82736 15.5938 3.21875 16.2024 3.21875 16.9531C3.21875 17.7039 3.82736 18.3125 4.57812 18.3125H15.9084C15.9877 21.8309 18.2951 24.7993 21.475 25.8623C21.1366 26.1249 20.7116 26.2812 20.25 26.2812H2.5C1.39543 26.2812 0.5 25.3858 0.5 24.2812V2ZM3.21875 6.07812C3.21875 5.32736 3.82736 4.71875 4.57812 4.71875H18.1719C18.9226 4.71875 19.5312 5.32736 19.5312 6.07812C19.5312 6.82889 18.9226 7.4375 18.1719 7.4375H4.57812C3.82736 7.4375 3.21875 6.82889 3.21875 6.07812Z"
    />
    <path fill-rule="evenodd" clip-rule="evenodd"
        d="M24.0625 23.5625C27.0655 23.5625 29.5 21.128 29.5 18.125C29.5 15.122 27.0655 12.6875 24.0625 12.6875C21.0595 12.6875 18.625 15.122 18.625 18.125C18.625 21.128 21.0595 23.5625 24.0625 23.5625ZM27.5 17.7038C27.4986 17.6379 27.4813 17.5737 27.45 17.5185L27.4545 17.5152L26.7892 16.2387H27.1818C27.2662 16.2387 27.3471 16.2001 27.4068 16.1314C27.4665 16.0627 27.5 15.9696 27.5 15.8724C27.5 15.7753 27.4665 15.6821 27.4068 15.6134C27.3471 15.5447 27.2662 15.5061 27.1818 15.5061H24.896C24.8312 15.292 24.7101 15.1064 24.5496 14.9751C24.389 14.8438 24.197 14.7732 24 14.7732C23.803 14.7732 23.611 14.8438 23.4504 14.9751C23.2899 15.1064 23.1688 15.292 23.104 15.5061H20.8182C20.7338 15.5061 20.6529 15.5447 20.5932 15.6134C20.5335 15.6821 20.5 15.7753 20.5 15.8724C20.5 15.9696 20.5335 16.0627 20.5932 16.1314C20.6529 16.2001 20.7338 16.2387 20.8182 16.2387H21.2108L20.5455 17.5152L20.55 17.5185C20.5187 17.5737 20.5014 17.6379 20.5 17.7038V18.0701C20.5 18.4587 20.6341 18.8313 20.8728 19.1061C21.1115 19.3809 21.4352 19.5352 21.7727 19.5352C22.1103 19.5352 22.434 19.3809 22.6727 19.1061C22.9114 18.8313 23.0455 18.4587 23.0455 18.0701V17.7038C23.044 17.6379 23.0268 17.5737 22.9955 17.5185L23 17.5152L22.3346 16.2387H23.104C23.1515 16.3919 23.228 16.531 23.328 16.6461C23.4279 16.7611 23.5487 16.8491 23.6818 16.9039V20.2678H22.7273C22.6429 20.2678 22.562 20.3064 22.5023 20.3751C22.4426 20.4437 22.4091 20.5369 22.4091 20.6341C22.4091 20.7312 22.4426 20.8244 22.5023 20.8931C22.562 20.9617 22.6429 21.0003 22.7273 21.0003H25.2727C25.3571 21.0003 25.438 20.9617 25.4977 20.8931C25.5574 20.8244 25.5909 20.7312 25.5909 20.6341C25.5909 20.5369 25.5574 20.4437 25.4977 20.3751C25.438 20.3064 25.3571 20.2678 25.2727 20.2678H24.3182V16.9039C24.4513 16.8491 24.5721 16.7611 24.672 16.6461C24.772 16.531 24.8485 16.3919 24.896 16.2387H25.6654L25 17.5152L25.0045 17.5185C24.9732 17.5737 24.956 17.6379 24.9545 17.7038V18.0701C24.9545 18.4587 25.0886 18.8313 25.3273 19.1061C25.566 19.3809 25.8897 19.5352 26.2273 19.5352C26.5648 19.5352 26.8885 19.3809 27.1272 19.1061C27.3659 18.8313 27.5 18.4587 27.5 18.0701V17.7038ZM24.0002 16.2387C23.8245 16.2387 23.682 16.0747 23.682 15.8724C23.682 15.6701 23.8245 15.5061 24.0002 15.5061C24.1759 15.5061 24.3184 15.6701 24.3184 15.8724C24.3184 16.0747 24.1759 16.2387 24.0002 16.2387ZM21.3234 18.5881C21.4427 18.7255 21.6046 18.8027 21.7733 18.8027C21.9421 18.8027 22.104 18.7255 22.2233 18.5881C22.3427 18.4507 22.4097 18.2644 22.4097 18.0701H21.137C21.137 18.2644 21.204 18.4507 21.3234 18.5881ZM22.166 17.3375L21.7733 16.5841L21.3807 17.3375H22.166ZM25.7779 18.5881C25.8973 18.7255 26.0591 18.8027 26.2279 18.8027C26.3967 18.8027 26.5585 18.7255 26.6779 18.5881C26.7972 18.4507 26.8643 18.2644 26.8643 18.0701H25.5915C25.5915 18.2644 25.6586 18.4507 25.7779 18.5881ZM26.2275 16.5841L26.6201 17.3375H25.8348L26.2275 16.5841Z"
    />
</svg>
    