<svg width="30" height="28" viewBox="0 0 30 28" xmlns="http://www.w3.org/2000/svg">
    <path
        d="M20.4693 11.8252C17.4505 8.80647 12.5568 8.80647 9.53801 11.8252C6.51926 14.844 6.51926 19.7377 9.53801 22.7565C12.5568 25.7752 17.4505 25.7752 20.4693 22.7565C23.4818 19.7377 23.4818 14.844 20.4693 11.8252ZM11.6068 25.2815C10.4068 24.769 9.33801 23.994 8.48801 23.0252L6.53176 26.4127L8.51926 26.1002C8.68801 26.069 8.86301 26.1252 8.97551 26.269L10.188 27.7565L11.6068 25.2815ZM21.5193 23.0252C20.663 23.994 19.6005 24.769 18.3943 25.2815L19.8193 27.7502L21.0318 26.2627C21.1443 26.1252 21.3193 26.0627 21.488 26.094L23.4755 26.4065L21.5193 23.0252ZM18.0818 14.2127C16.3818 12.5127 13.6255 12.5127 11.9255 14.2127C10.2255 15.9127 10.2255 18.669 11.9255 20.369C13.6255 22.069 16.3818 22.069 18.0818 20.369C19.7818 18.669 19.7818 15.9127 18.0818 14.2127ZM15.0005 11.9815C17.9318 11.9815 20.313 14.3565 20.313 17.294C20.313 20.2252 17.938 22.6065 15.0005 22.6065C12.0693 22.6065 9.68801 20.2315 9.68801 17.294C9.69426 14.3565 12.0693 11.9815 15.0005 11.9815ZM12.5255 17.644C12.3943 17.4127 12.4693 17.1252 12.7005 16.994C12.9318 16.8627 13.2193 16.9377 13.3505 17.169L14.113 18.4877L16.7255 15.8752C16.913 15.6877 17.2193 15.6877 17.4005 15.8752C17.588 16.0627 17.588 16.3627 17.4005 16.5502L14.3505 19.6002C14.1318 19.819 13.7568 19.7752 13.6005 19.5002L12.5255 17.644ZM26.0318 5.02522L26.9755 6.98147L29.1255 7.27522C29.4943 7.32522 29.6255 7.77522 29.3693 8.02522L27.8005 9.52522L28.188 11.6627C28.2505 12.0252 27.8693 12.294 27.5505 12.1252L25.638 11.1002L23.7255 12.1252C23.413 12.294 23.0068 12.0315 23.0943 11.6377L23.4755 9.52522L21.9068 8.02522C21.6443 7.77522 21.788 7.32522 22.1568 7.27522L24.3005 6.98147L25.2443 5.02522C25.4005 4.69397 25.8693 4.70022 26.0318 5.02522ZM4.75676 5.02522L5.70051 6.98147L7.85051 7.27522C8.21301 7.32522 8.35051 7.77522 8.09426 8.02522L6.52551 9.52522L6.91301 11.6627C6.97551 12.0252 6.59426 12.294 6.28176 12.1252L4.36926 11.1002L2.45676 12.1252C2.14426 12.294 1.74426 12.0315 1.82551 11.6377L2.20676 9.52522L0.638006 8.02522C0.375506 7.77522 0.519256 7.32522 0.888006 7.27522L3.03176 6.98147L3.97551 5.02522C4.13176 4.69397 4.60051 4.70022 4.75676 5.02522ZM15.3943 0.493968L16.338 2.45022L18.488 2.74397C18.8505 2.79397 18.988 3.24397 18.7318 3.49397L17.163 4.99397L17.5505 7.13147C17.613 7.49397 17.2318 7.76272 16.913 7.59397L15.0005 6.56272L13.088 7.58772C12.7755 7.75647 12.3755 7.49397 12.4568 7.10022L12.838 4.98772L11.2693 3.48772C11.0068 3.23772 11.1505 2.78772 11.5193 2.73772L13.663 2.44397L14.6068 0.487718C14.7693 0.162718 15.238 0.168968 15.3943 0.493968Z"
    />
</svg>
    