<svg width="20" height="24" viewBox="0 0 20 24" xmlns="http://www.w3.org/2000/svg">
    <path
        d="M14.3635 0H2.36348C1.15852 0 0.181641 0.976828 0.181641 2.1818V21.8182C0.181641 23.0231 1.15847 24 2.36344 24H17.6362C18.8411 24 19.818 23.0231 19.818 21.8182V6L14.3635 0ZM18.7271 21.8182C18.7271 22.4207 18.2387 22.9091 17.6362 22.9091H2.36348C1.761 22.9091 1.27256 22.4207 1.27256 21.8182V2.1818C1.27256 1.57931 1.761 1.09087 2.36348 1.09087H12.1817V6.54544C12.1817 7.14792 12.6701 7.63636 13.2726 7.63636H18.7272L18.7271 21.8182ZM13.2726 6.54544V1.09092H13.818L18.7271 6.54548L13.2726 6.54544Z"
        stroke="none" />
    <path
        d="M12.3866 14.9999C12.3866 16.3199 11.3199 17.3866 9.99995 17.3866C8.67995 17.3866 7.61328 16.3199 7.61328 14.9999C7.61328 13.6799 8.67995 12.6133 9.99995 12.6133C11.3199 12.6133 12.3866 13.6799 12.3866 14.9999Z"
        fill="none" stroke-width="1.5" stroke-linecap="round" stroke-linejoin="round" />
    <path
        d="M9.9999 20.5128C12.3532 20.5128 14.5466 19.1262 16.0732 16.7262C16.6732 15.7862 16.6732 14.2062 16.0732 13.2662C14.5466 10.8662 12.3532 9.47949 9.9999 9.47949C7.64656 9.47949 5.45323 10.8662 3.92656 13.2662C3.32656 14.2062 3.32656 15.7862 3.92656 16.7262C5.45323 19.1262 7.64656 20.5128 9.9999 20.5128Z"
        fill="none" stroke-width="1.5" stroke-linecap="round" stroke-linejoin="round" />
</svg>
    