<svg width="22" height="22" viewBox="0 0 22 22" xmlns="http://www.w3.org/2000/svg">
    <path
        d="M2.34989 1H11.2499C11.9899 1 12.5999 1.61 12.5999 2.35V3.83C12.5999 4.37 12.2599 5.04 11.9299 5.38L9.02989 7.94C8.62989 8.28 8.35989 8.95 8.35989 9.49V12.39C8.35989 12.79 8.08989 13.33 7.74989 13.54L6.80989 14.15C5.92989 14.69 4.71989 14.08 4.71989 13V9.43C4.71989 8.96 4.44989 8.35 4.17989 8.01L1.61989 5.31C1.27989 4.97 1.00989 4.37 1.00989 3.96V2.41C0.999887 1.61 1.60989 1 2.34989 1Z"
        fill="none" stroke-width="1.5" stroke-miterlimit="10" stroke-linecap="round"
        stroke-linejoin="round" />
    <path
        d="M1 11.0002V14.0002C1 19.0002 3 21.0002 8 21.0002H14C19 21.0002 21 19.0002 21 14.0002V8.00023C21 4.88023 20.22 2.92023 18.41 1.90023C17.9 1.61023 16.88 1.39023 15.95 1.24023M12 12.0002H17M10 16.0002H17"
        fill="none" stroke-width="1.5" stroke-linecap="round" stroke-linejoin="round" />
</svg>
    