<svg width="24" height="24" viewBox="0 0 24 24" xmlns="http://www.w3.org/2000/svg">
    <path d="M13.3921 7.54087L7.82874 2.06348L2.08407 7.75469L7.64742 13.2344L13.3921 7.54087Z"
    />
    <path
        d="M13.8626 6.66274C14.2 6.99484 14.7462 6.99484 15.0836 6.66274L15.1318 6.61497C15.4439 6.30561 15.4233 5.84158 15.1869 5.47309C13.8213 3.344 11.5262 1.11483 9.80483 0.161742C9.42155 -0.0498024 8.96712 -0.079373 8.65957 0.227707L8.5976 0.289123C8.26481 0.618949 8.26711 1.1535 8.5999 1.48105L13.8626 6.66501V6.66274Z"
    />
    <path
        d="M6.75924 13.7028C7.09662 14.0349 7.09892 14.574 6.76154 14.9084L6.71334 14.9562C6.4012 15.2655 5.933 15.2473 5.5566 15.013C3.40149 13.671 1.13851 11.4122 0.167677 9.71305C-0.0480633 9.33546 -0.0801959 8.88735 0.229644 8.58027L0.291612 8.51885C0.624403 8.18903 1.16376 8.18903 1.49884 8.51885L6.76154 13.7028H6.75924Z"
    />
    <path
        d="M23.346 23.0173C23.4538 22.965 23.4974 22.8445 23.5938 22.7717C23.8693 22.4055 24.0138 21.9573 24.0001 21.4956C23.9863 20.9315 23.7384 20.3992 23.3138 20.0216L12.0976 10.2314L11.2186 11.0753L10.3671 11.9465L20.3118 22.9969C20.6951 23.4131 21.2368 23.6565 21.8059 23.6702C22.2742 23.6815 22.7263 23.536 23.0981 23.263C23.1692 23.1675 23.2909 23.1243 23.346 23.0173Z"
    />
    <path
        d="M13.6651 19.6104L14.31 20.3291V21.0866H14.9137L15.7192 21.885V24.0005H0.422307V21.885L1.22789 21.0866H1.83151V20.3291L2.47414 19.6104H13.6651Z"
    />
</svg>
    