<svg width="32" height="30" viewBox="0 0 32 30" xmlns="http://www.w3.org/2000/svg">
    <path
        d="M31.9387 6.3894L20.7147 17.6134C19.4632 18.8617 17.7677 19.5628 16 19.5628C14.2323 19.5628 12.5368 18.8617 11.2853 17.6134L0.0613333 6.3894C0.0426667 6.60007 0 6.79074 0 7.00007V23.0001C0.00211714 24.7675 0.705176 26.462 1.95496 27.7118C3.20474 28.9616 4.89921 29.6646 6.66667 29.6667H25.3333C27.1008 29.6646 28.7953 28.9616 30.045 27.7118C31.2948 26.462 31.9979 24.7675 32 23.0001V7.00007C32 6.79074 31.9573 6.60007 31.9387 6.3894Z"
    />
    <path
        d="M18.8293 15.7279L31.0079 3.54792C30.418 2.56968 29.5859 1.75997 28.5919 1.19689C27.5979 0.633816 26.4757 0.336373 25.3333 0.333252H6.66661C5.52424 0.336373 4.40194 0.633816 3.40798 1.19689C2.41401 1.75997 1.58191 2.56968 0.991943 3.54792L13.1706 15.7279C13.922 16.4763 14.9394 16.8965 15.9999 16.8965C17.0605 16.8965 18.0778 16.4763 18.8293 15.7279Z"
    />
</svg>
    