<svg width="22" height="12" viewBox="0 0 22 12" xmlns="http://www.w3.org/2000/svg">
    <path
        d="M1.68955 0.704754C1.52638 0.324034 1.08547 0.147665 0.704755 0.310834C0.324035 0.474004 0.147664 0.914915 0.310834 1.29563L1.68955 0.704754ZM8.04164 7.7379C8.26755 7.3908 8.16923 6.92619 7.82204 6.70029C7.47485 6.47439 7.01027 6.57269 6.78436 6.91989L8.04164 7.7379ZM5.37155 9.09119C5.14564 9.43829 5.24396 9.90289 5.59115 10.1288C5.93834 10.3547 6.40292 10.2564 6.62883 9.90919L5.37155 9.09119ZM21.6896 1.29563C21.8527 0.914915 21.6764 0.474004 21.2956 0.310834C20.9149 0.147665 20.474 0.324034 20.3108 0.704754L21.6896 1.29563ZM18.9699 7.15939C19.2628 7.45229 19.7376 7.45229 20.0305 7.15939C20.3234 6.86649 20.3234 6.39159 20.0305 6.09869L18.9699 7.15939ZM10.2502 10.5002C10.2502 10.9144 10.586 11.2502 11.0002 11.2502C11.4144 11.2502 11.7502 10.9144 11.7502 10.5002H10.2502ZM15.3716 9.90919C15.5975 10.2564 16.0621 10.3547 16.4092 10.1288C16.7564 9.90289 16.8547 9.43829 16.6288 9.09119L15.3716 9.90919ZM4.53052 5.65939C4.82341 5.36649 4.82341 4.89159 4.53052 4.59869C4.23763 4.30579 3.76275 4.30579 3.46986 4.59869L4.53052 5.65939ZM1.96986 6.09869C1.67697 6.39159 1.67697 6.86649 1.96986 7.15939C2.26275 7.45229 2.73763 7.45229 3.03052 7.15939L1.96986 6.09869ZM11.0002 7.25019C7.7763 7.25019 5.46152 5.64479 3.92479 3.98985C3.15664 3.16262 2.59344 2.33303 2.22278 1.71033C2.03788 1.39969 1.90206 1.14251 1.81359 0.965565C1.76938 0.877155 1.73708 0.808945 1.71646 0.764305C1.70616 0.741995 1.69878 0.725595 1.6943 0.715525C1.69206 0.710495 1.69034 0.706564 1.68955 0.704754C1.68953 0.704714 1.68958 0.704834 1.68955 0.704754C1.68965 0.704984 1.68955 0.704755 1.00019 1.00019C0.310834 1.29563 0.310684 1.29529 0.310834 1.29563C0.310894 1.29578 0.311334 1.29679 0.311464 1.29709C0.311714 1.29768 0.312025 1.29839 0.312375 1.29919C0.313065 1.30081 0.313954 1.30285 0.315024 1.30531C0.317174 1.31022 0.320074 1.31681 0.323724 1.32502C0.331024 1.34144 0.341344 1.36434 0.354724 1.3933C0.381464 1.45121 0.420455 1.53339 0.471955 1.63638C0.574885 1.84225 0.728135 2.13194 0.933855 2.47755C1.34444 3.16735 1.96874 4.08779 2.82559 5.01049C4.53886 6.85559 7.22408 8.75019 11.0002 8.75019V7.25019ZM14.3127 6.63099C13.3423 7.01299 12.2419 7.25019 11.0002 7.25019V8.75019C12.4384 8.75019 13.7248 8.47439 14.8621 8.02679L14.3127 6.63099ZM6.78436 6.91989L5.37155 9.09119L6.62883 9.90919L8.04164 7.7379L6.78436 6.91989ZM21.0002 1.00019C20.3108 0.704755 20.3107 0.704894 20.3108 0.704754C20.3109 0.704594 20.3113 0.703685 20.3113 0.703795C20.3112 0.703995 20.3109 0.704715 20.3103 0.705955C20.3092 0.708425 20.3072 0.712945 20.3043 0.719435C20.2985 0.732425 20.2891 0.753285 20.276 0.781445C20.2497 0.837765 20.2088 0.923145 20.1528 1.03286C20.0408 1.25246 19.8692 1.5685 19.6356 1.94339C19.1671 2.69535 18.4565 3.67216 17.4869 4.58219L18.5135 5.67589C19.6025 4.65369 20.3919 3.56606 20.9087 2.73665C21.1678 2.32087 21.3602 1.96699 21.4891 1.71434C21.5535 1.58794 21.6022 1.48662 21.6355 1.41526C21.6521 1.37958 21.6649 1.35137 21.6739 1.33123C21.6784 1.32116 21.682 1.31311 21.6846 1.30715C21.6859 1.30417 21.6869 1.30172 21.6878 1.29979C21.6882 1.29883 21.6885 1.298 21.6888 1.29731C21.689 1.29696 21.6895 1.29591 21.6896 1.29563C21.6896 1.2957 21.6897 1.29549 21.6896 1.29563C21.6897 1.29546 21.6896 1.29563 21.0002 1.00019ZM17.4869 4.58219C16.6279 5.38839 15.5741 6.13449 14.3127 6.63099L14.8621 8.02679C16.3357 7.44679 17.5468 6.58319 18.5135 5.67589L17.4869 4.58219ZM17.4699 5.65939L18.9699 7.15939L20.0305 6.09869L18.5305 4.59869L17.4699 5.65939ZM10.2502 8.00019V10.5002H11.7502V8.00019H10.2502ZM13.9588 7.7379L15.3716 9.90919L16.6288 9.09119L15.216 6.91989L13.9588 7.7379ZM3.46986 4.59869L1.96986 6.09869L3.03052 7.15939L4.53052 5.65939L3.46986 4.59869Z"
        stroke="none" />
</svg>
    