<svg width="32" height="32" viewBox="0 0 32 32" xmlns="http://www.w3.org/2000/svg">
    <path
        d="M32.0003 8.31999C32.0003 18.5067 18.4936 32 8.32025 32C6.09358 32 4.01358 31.16 2.48025 29.6267L1.14692 28.0933C-0.399751 26.5467 -0.399751 23.9333 1.21358 22.32C1.25358 22.28 4.46692 19.8133 4.46692 19.8133C6.06692 18.2933 8.58692 18.2933 10.1736 19.8133L12.1203 21.3733C16.3869 19.56 19.4136 16.52 21.3603 12.1067L19.8136 10.16C18.2803 8.57332 18.2803 6.03999 19.8136 4.45332C19.8136 4.45332 22.2803 1.23999 22.3203 1.19999C23.9336 -0.413343 26.5469 -0.413343 28.1603 1.19999L29.5603 2.41332C31.1603 3.99999 32.0003 6.07999 32.0003 8.30666V8.31999Z"
    />
</svg>
    