<svg width="48" height="48" viewBox="0 0 48 48" fill="none" xmlns="http://www.w3.org/2000/svg">
    <circle cx="24" cy="24" r="24" fill="#008f59" />
    <path
        d="M24.0009 14C21.3809 14 19.2509 16.13 19.2509 18.75C19.2509 21.32 21.2609 23.4 23.8809 23.49C23.9609 23.48 24.0409 23.48 24.1009 23.49H24.1709C25.4003 23.449 26.5655 22.9315 27.4202 22.0469C28.2749 21.1623 28.7521 19.98 28.7509 18.75C28.7509 16.13 26.6209 14 24.0009 14ZM29.0809 26.149C26.2909 24.289 21.7409 24.289 18.9309 26.149C17.6609 26.999 16.9609 28.149 16.9609 29.379C16.9609 30.609 17.6609 31.749 18.9209 32.589C20.3209 33.529 22.1609 33.999 24.0009 33.999C25.8409 33.999 27.6809 33.529 29.0809 32.589C30.3409 31.739 31.0409 30.599 31.0409 29.359C31.0309 28.129 30.3409 26.989 29.0809 26.149Z"
        fill="white" />
</svg>
    