<svg width="149" height="40" viewBox="0 0 149 40" fill="none" xmlns="http://www.w3.org/2000/svg">
    <g clip-path="url(#clip0_1259_17241)">
        <path
            d="M28.3132 25.7234C27.3032 28.5446 26.0412 31.1199 23.9906 33.2221C22.1665 35.0937 20.4923 35.4533 18.1216 34.397C15.8734 33.3958 13.6797 33.3562 11.4759 34.4452C9.36226 35.4894 7.53138 35.0851 5.91339 33.4096C3.01292 30.4042 1.35917 26.7504 0.449684 22.7146C-0.303108 19.3789 -0.204325 16.1104 1.42389 13.0208C3.48981 9.09854 7.65571 7.44707 11.6751 9.2138C13.7734 10.1359 15.5498 9.81934 17.5289 9.01941C21.2281 7.52449 25.0432 8.66503 27.3918 11.8355C24.9154 13.5696 23.4252 15.8902 23.6568 19.0401C23.885 22.1262 25.4604 24.3351 28.3115 25.7216L28.3132 25.7234Z"
            fill="#FAFBF8" />
        <path
            d="M76.2245 33.3649V40.0001H73.2832V21.5535H75.7068C75.7579 22.1642 75.809 22.7714 75.8754 23.561C76.8649 22.2691 77.9771 21.4933 79.4231 21.2885C81.9897 20.9256 84.0812 22.1022 85.0962 24.5244C85.9597 26.5853 85.9853 28.6858 85.3228 30.8189C83.9875 35.1162 79.0978 36.2498 76.2245 33.3615V33.3649ZM76.0849 28.1611C76.1496 28.1697 76.2143 28.18 76.279 28.1886C76.279 28.789 76.2041 29.4014 76.2944 29.9863C76.4868 31.2249 77.0948 32.2175 78.3637 32.5598C79.6632 32.9108 80.8418 32.6459 81.741 31.5483C83.153 29.8246 83.1649 26.4511 81.7717 24.7136C80.3053 22.8867 77.4815 23.2393 76.6299 25.4207C76.2961 26.2739 76.2569 27.2442 76.0832 28.1611H76.0849Z"
            fill="#FAFBF8" />
        <path
            d="M61.1618 33.4458V39.9984H58.2085V21.5587H60.6304C60.6934 22.135 60.7598 22.7474 60.8245 23.3581C60.9012 23.432 60.9778 23.506 61.0545 23.58C61.1056 23.4183 61.1158 23.2205 61.2163 23.1018C63.6007 20.265 67.9284 20.6125 69.6894 23.8724C71.2342 26.7298 71.1558 29.6818 69.4612 32.4566C67.6678 35.3914 63.9277 35.8232 61.4002 33.5026C61.3661 33.4716 61.2997 33.4785 61.1618 33.4475V33.4458ZM61.0562 27.9753C61.1601 28.9593 61.1618 29.6853 61.3236 30.3734C61.591 31.5036 62.262 32.3379 63.4389 32.596C64.6515 32.8626 65.75 32.6235 66.6221 31.6602C68.1924 29.9261 68.1975 26.3101 66.634 24.5795C65.0943 22.8747 62.3489 23.3202 61.5433 25.4706C61.2214 26.3307 61.1805 27.2992 61.0562 27.9753Z"
            fill="#FAFBF8" />
        <path
            d="M55.6469 34.6997C54.7323 34.6997 53.879 34.7427 53.036 34.6722C52.8044 34.6532 52.4893 34.3298 52.4041 34.0787C51.9443 32.7248 51.5253 31.3555 51.1353 29.9792C51.0058 29.5234 50.8253 29.3204 50.3246 29.329C48.7645 29.3599 47.2027 29.3599 45.6409 29.329C45.1572 29.3204 44.9392 29.4821 44.8064 29.95C44.4249 31.2987 43.9633 32.625 43.6056 33.9806C43.449 34.5741 43.173 34.753 42.5957 34.7135C41.8991 34.6653 41.1957 34.7014 40.3799 34.7014C41.0509 32.5975 41.6828 30.6123 42.3181 28.6288C43.5375 24.8132 44.7706 21.0028 45.9645 17.1786C46.1502 16.5868 46.4107 16.3443 47.0358 16.3924C47.9385 16.4595 49.0711 16.1189 49.6876 16.5559C50.2922 16.9842 50.4046 18.1575 50.6822 19.0193C52.2883 24.003 53.8807 28.9918 55.4732 33.9806C55.5413 34.1922 55.5771 34.4124 55.6469 34.7031V34.6997ZM47.9334 19.0228C47.1022 21.8337 46.3443 24.3969 45.5728 27.0049H50.3723C49.565 24.3642 48.7866 21.8113 47.9351 19.0228H47.9334Z"
            fill="#FAFBF8" />
        <path
            d="M91.9548 31.6566C93.2629 31.9628 94.5079 32.3292 95.7784 32.5185C96.4239 32.6148 97.1358 32.4651 97.7796 32.2897C98.7487 32.0265 99.4163 31.3762 99.5901 30.3354C99.7689 29.2637 99.4794 28.3124 98.5954 27.6707C98.0061 27.2424 97.3113 26.962 96.6607 26.6196C95.6098 26.0674 94.467 25.6425 93.52 24.9441C90.8512 22.9778 90.9483 19.1416 93.7091 17.3043C96.2945 15.5857 99.028 15.9057 101.893 16.9637C101.642 17.7619 101.411 18.5068 101.181 19.2431C100.29 19.0177 99.4828 18.684 98.6585 18.6375C97.749 18.5859 96.7611 18.6203 95.9215 18.9317C94.3376 19.5183 94.0293 21.5138 95.2981 22.6441C95.8585 23.1447 96.5806 23.4646 97.2465 23.8379C98.4302 24.5002 99.7519 24.9836 100.794 25.8214C103.574 28.0578 103.087 32.4875 99.9052 34.0856C97.2891 35.3999 94.5862 35.221 91.9123 34.1493C91.466 33.9704 91.3111 33.6986 91.4831 33.2169C91.6824 32.6544 91.8305 32.0746 91.9548 31.6549V31.6566Z"
            fill="#FAFBF8" />
        <path
            d="M113.804 28.2934C113.876 24.4899 115.928 21.8235 119.075 21.2764C123.156 20.5677 126.447 23.3528 126.605 27.7292C126.699 30.3509 125.876 32.6182 123.546 34.0409C121.414 35.3414 119.169 35.4016 116.981 34.1854C114.637 32.8832 113.854 30.6846 113.804 28.2934ZM116.529 28.0732C116.87 29.2052 117.018 30.289 117.502 31.1887C118.697 33.4113 121.467 33.4801 122.766 31.3177C123.992 29.2774 123.994 27.0824 122.838 25.0163C121.649 22.8935 118.943 22.8281 117.669 24.9062C117.096 25.8403 116.899 27.0084 116.529 28.075V28.0732Z"
            fill="#FAFBF8" />
        <path
            d="M148.978 28.7717H140.42C140.025 30.5676 141.377 32.4066 143.349 32.5821C144.569 32.6905 145.82 32.4531 147.055 32.3516C147.299 32.3309 147.535 32.2208 147.866 32.1262C148.006 32.8006 148.137 33.4285 148.29 34.1716C145.662 35.0283 143.054 35.522 140.52 34.1475C138.083 32.8264 137.359 30.4816 137.482 27.8754C137.608 25.1814 138.556 22.8453 141.191 21.6944C144.979 20.0395 148.581 22.2931 148.968 26.5009C149.033 27.2079 148.976 27.927 148.976 28.7734L148.978 28.7717ZM146.175 26.6746C146.342 24.6894 145.211 23.2564 143.479 23.2031C141.777 23.1498 140.272 24.8116 140.369 26.6746H146.175Z"
            fill="#FAFBF8" />
        <path
            d="M112.137 23.6985H108.978C108.978 24.5225 108.978 25.2829 108.978 26.0433C108.978 27.447 108.959 28.8491 108.99 30.2528C109.031 32.1417 109.662 32.6836 111.536 32.5047C111.645 32.4943 111.757 32.5047 112.035 32.5047C112.035 33.105 112.071 33.6968 112.013 34.2783C111.996 34.4537 111.73 34.7341 111.568 34.7427C110.533 34.7943 109.463 34.944 108.462 34.7531C107.069 34.4881 106.377 33.3441 106.287 32.0023C106.14 29.8348 106.157 27.6569 106.111 25.4842C106.099 24.9199 106.11 24.354 106.11 23.714H104.279V21.5293C104.837 21.5034 105.417 21.4759 106.111 21.4432C106.111 20.8205 106.086 20.227 106.125 19.6387C106.139 19.4219 106.253 19.083 106.406 19.0262C107.218 18.72 108.056 18.4844 108.991 18.1902V21.469H112.141V23.6985H112.137Z"
            fill="#FAFBF8" />
        <path
            d="M132.037 34.6533H129.189V21.5327H131.575C131.621 22.2724 131.665 22.9726 131.708 23.6573C132.306 23.007 132.791 22.2312 133.488 21.7959C134.162 21.3745 135.051 21.3056 135.973 21.0476V23.9618C135.858 23.9772 135.753 24.0031 135.647 24.0013C133.351 23.96 132.137 25.1247 132.096 27.4952C132.059 29.6146 132.089 31.7357 132.084 33.8568C132.084 34.108 132.055 34.3592 132.035 34.6533H132.037Z"
            fill="#FAFBF8" />
        <path
            d="M21.017 0.00685806C21.7136 3.83793 17.9223 8.27797 14.2486 7.93048C13.4805 3.95147 17.8644 -0.184093 21.017 0.00685806Z"
            fill="#FAFBF8" />
        <path
            d="M42.1919 9.96743V1.01164C43.9002 0.724354 45.5778 0.566088 47.2026 1.2714C49.0266 2.06445 49.8237 4.10987 49.2991 6.46149C48.9176 8.16801 47.8838 9.30856 46.2147 9.64574C44.9323 9.90378 43.5919 9.86593 42.1919 9.96743ZM43.597 2.02489V8.69614C45.0907 8.80796 46.5213 8.82172 47.3593 7.40593C48.1648 6.04347 48.2313 4.51758 47.395 3.16543C46.5298 1.76684 45.0498 1.92511 43.597 2.02489Z"
            fill="#FAFBF8" />
        <path
            d="M102.802 9.83826C102.189 9.87266 101.518 10.1462 101.533 9.02284C100.525 10.0378 99.4213 10.2873 98.2819 9.69891C97.0914 9.08477 96.7593 7.90638 96.7559 6.64369C96.7508 4.53463 98.0758 3.04658 99.8181 3.22893C100.329 3.28226 100.818 3.55407 101.429 3.76394C101.429 3.28398 101.429 2.73349 101.429 2.18472C101.429 1.63595 101.429 1.04589 101.429 0.414551H102.802V9.83826ZM101.429 6.322C101.423 6.25835 101.417 5.94354 101.358 5.63905C101.232 5.00942 100.918 4.51742 100.239 4.40561C99.5388 4.29035 98.9206 4.48474 98.5765 5.13845C98.3722 5.52723 98.2325 5.98654 98.1984 6.42522C98.0963 7.7636 98.815 8.77168 99.8284 8.81297C100.862 8.85425 101.428 8.06293 101.429 6.322Z"
            fill="#FAFBF8" />
        <path
            d="M61.5264 8.11281C61.9011 6.83292 62.2656 5.54959 62.6539 4.27486C62.7833 3.84823 62.7357 3.31838 63.4765 3.30462C64.277 3.29086 64.214 3.87059 64.3417 4.32303C64.6977 5.58399 65.023 6.85356 65.522 8.12313C65.8422 6.86905 66.159 5.61496 66.4809 4.36087C66.6773 3.59592 67.2042 3.28856 68.0614 3.4388C67.4415 5.49282 66.8454 7.5434 66.1709 9.56817C66.1096 9.75568 65.5527 9.85029 65.2291 9.84341C65.0332 9.83997 64.7283 9.59741 64.667 9.39958C64.3128 8.25215 64.0164 7.0858 63.6979 5.92633C63.6468 5.74054 63.577 5.56163 63.4425 5.15908C63.0218 6.63853 62.6488 7.90294 62.3065 9.17766C62.1821 9.64386 62.0101 9.89846 61.4549 9.8933C60.8928 9.88814 60.6748 9.69031 60.5301 9.15702C60.0174 7.28019 59.4503 5.42057 58.9053 3.55922C59.8403 3.06206 60.2405 3.22377 60.4517 4.16304C60.7481 5.47562 61.0461 6.78647 61.3425 8.09905C61.4038 8.10249 61.4634 8.10593 61.5247 8.11109L61.5264 8.11281Z"
            fill="#FAFBF8" />
        <path
            d="M138.55 9.80554C138.55 8.85422 138.55 7.94419 138.55 7.03416C138.55 6.66258 138.565 6.28928 138.539 5.9177C138.475 4.93714 138.027 4.43654 137.238 4.43138C136.409 4.42621 135.872 4.96982 135.836 5.9263C135.802 6.81225 135.826 7.70163 135.825 8.5893C135.825 8.95916 135.825 9.33074 135.825 9.8107C135.36 9.83478 134.929 9.85715 134.433 9.88295V0.419678H135.809V4.07356C136.039 3.90669 136.145 3.83444 136.244 3.7553C137.618 2.64916 139.386 3.15493 139.774 4.87005C140.002 5.88329 139.927 6.96879 139.97 8.02332C139.992 8.59446 139.973 9.16559 139.973 9.80554H138.55Z"
            fill="#FAFBF8" />
        <path
            d="M87.8518 6.61622C87.8296 8.5997 86.4927 10.0155 84.6533 10.0035C82.8411 9.99141 81.574 8.58594 81.591 6.6059C81.608 4.61381 82.9365 3.2049 84.7844 3.22382C86.5948 3.24274 87.8756 4.65854 87.8535 6.61622H87.8518ZM86.3462 6.57493C86.3496 5.25547 85.7109 4.32308 84.7759 4.27835C83.8034 4.23191 83.0761 5.17462 83.0455 6.51988C83.0131 7.95804 83.6569 8.93 84.6498 8.94204C85.6394 8.95408 86.3445 7.9718 86.3479 6.57493H86.3462Z"
            fill="#FAFBF8" />
        <path
            d="M115.104 6.57673C115.095 8.56193 113.774 9.99665 111.943 10.0035C110.127 10.0121 108.845 8.62215 108.841 6.6421C108.838 4.65001 110.156 3.22046 111.996 3.22046C113.813 3.22046 115.111 4.62249 115.104 6.57501V6.57673ZM110.294 6.6249C110.291 8.01144 110.943 8.94384 111.919 8.94212C112.883 8.94212 113.574 7.99252 113.595 6.6421C113.617 5.27448 112.968 4.30768 112.007 4.27671C111.015 4.24575 110.298 5.22631 110.294 6.6249Z"
            fill="#FAFBF8" />
        <path
            d="M122.652 9.82635H121.382C121.382 8.67376 121.387 7.5659 121.378 6.45803C121.375 6.11742 121.37 5.76648 121.297 5.43619C121.137 4.71539 120.655 4.37305 119.929 4.44186C119.173 4.51412 118.73 4.97515 118.686 5.72347C118.631 6.63522 118.662 7.55385 118.657 8.46904C118.655 8.89223 118.657 9.31714 118.657 9.80742H117.233V3.39421C117.807 3.37185 118.522 2.96758 118.532 4.14253C118.757 3.95846 118.922 3.81396 119.098 3.68322C120.498 2.64245 122.342 3.19638 122.601 4.9201C122.838 6.50276 122.652 8.14907 122.652 9.82463V9.82635Z"
            fill="#FAFBF8" />
        <path
            d="M57.3894 6.58532C57.3826 8.58085 56.0712 9.99836 54.2301 10.0035C52.4214 10.0087 51.1321 8.60837 51.1304 6.63693C51.1304 4.65861 52.4656 3.21873 54.2982 3.22389C56.1172 3.22905 57.3963 4.61904 57.3894 6.58704V6.58532ZM52.5712 6.75391C52.6053 6.9397 52.636 7.34397 52.7552 7.71899C52.9664 8.3899 53.3768 8.8905 54.1296 8.93351C54.9233 8.97823 55.4291 8.51032 55.6556 7.81016C55.8174 7.30784 55.877 6.74531 55.8583 6.21374C55.8208 5.09728 55.1447 4.30595 54.3016 4.27842C53.4381 4.2509 52.7109 5.06975 52.6036 6.19826C52.5934 6.3118 52.59 6.42706 52.5729 6.75563L52.5712 6.75391Z"
            fill="#FAFBF8" />
        <path
            d="M69.9805 3.36994H71.1165C71.1607 3.61422 71.2016 3.84474 71.2612 4.1716C71.4656 3.98752 71.5814 3.87227 71.7075 3.77077C73.1943 2.57173 75.1393 3.20996 75.388 5.11431C75.5855 6.62644 75.4271 8.18673 75.4271 9.80036H74.0782C74.0782 8.43617 74.1481 7.09435 74.0391 5.7663C74.0033 5.32246 73.5894 4.69972 73.2045 4.55694C72.8094 4.41071 72.1213 4.61715 71.779 4.91992C71.4826 5.1814 71.4026 5.79038 71.3822 6.25314C71.3294 7.41949 71.3651 8.58928 71.3651 9.81584H69.9805V3.36994Z"
            fill="#FAFBF8" />
        <path
            d="M93.1657 5.59961C93.1385 4.17521 92.4453 3.93437 90.2891 4.5726C89.8156 3.90685 90.0643 3.53871 90.7847 3.40108C91.2821 3.30647 91.7896 3.20841 92.2903 3.21357C93.7533 3.23078 94.5419 3.99114 94.6407 5.46714C94.6884 6.17934 94.6662 6.8967 94.6696 7.61062C94.673 8.32109 94.6696 9.03157 94.6696 9.79709C94.1859 9.84182 93.5643 10.2082 93.3803 9.41691C92.7434 9.61302 92.1541 9.89687 91.5409 9.9588C90.6127 10.0517 89.8633 9.50981 89.6027 8.7374C89.2962 7.82737 89.5993 6.86229 90.4322 6.33761C90.8307 6.08645 91.2991 5.91958 91.7572 5.79916C92.2137 5.67874 92.6974 5.65982 93.1623 5.59789L93.1657 5.59961ZM93.2373 6.53716C92.6275 6.66102 92.0842 6.69887 91.6005 6.88982C90.9874 7.1341 90.7643 7.84629 91.0317 8.39678C91.294 8.93867 91.9548 9.09178 92.5799 8.74772C93.4212 8.28325 93.3531 7.516 93.2373 6.53716Z"
            fill="#FAFBF8" />
        <path
            d="M143.444 6.9827C143.57 8.64621 144.482 9.05048 147.171 8.63761C147.234 8.91629 147.299 9.20358 147.36 9.47711C145.877 10.2667 143.739 10.0224 142.811 8.9851C141.842 7.90477 141.755 5.91096 142.618 4.5657C143.415 3.32366 144.935 2.8351 146.187 3.41999C147.386 3.97908 148.005 5.51702 147.575 6.9827H143.446H143.444ZM146.318 5.88344C146.289 4.76181 145.863 4.25089 144.993 4.23713C144.1 4.22336 143.56 4.8117 143.485 5.88344H146.318Z"
            fill="#FAFBF8" />
        <path
            d="M129.415 4.48996C129.08 4.44524 128.833 4.41255 128.523 4.37299V3.41823C128.78 3.36834 129.046 3.31673 129.383 3.25136C129.197 2.17618 129.805 1.85621 130.786 1.85449C130.814 2.30005 130.841 2.7456 130.873 3.27373C131.359 3.30813 131.825 3.34082 132.353 3.37866V4.37471C131.882 4.40739 131.415 4.43836 130.889 4.47448C130.889 5.65804 130.843 6.82611 130.907 7.98558C130.943 8.63928 131.136 8.70466 132.161 8.77863C132.473 9.79359 132.374 9.9467 131.381 9.97594C130.204 10.0121 129.541 9.43578 129.453 8.18685C129.386 7.2751 129.424 6.35475 129.415 5.43956C129.414 5.13163 129.415 4.8237 129.415 4.49168V4.48996Z"
            fill="#FAFBF8" />
        <path
            d="M79.4349 9.82103H78.0928V0.411085C78.51 0.390442 78.9409 0.368078 79.4349 0.343994V9.82103Z"
            fill="#FAFBF8" />
    </g>
    <defs>
        <clipPath id="clip0_1259_17241">
            <rect width="149" height="40" fill="white" />
        </clipPath>
    </defs>
</svg>
    