<svg width="166" height="40" viewBox="0 0 166 40" fill="none" xmlns="http://www.w3.org/2000/svg">
    <g clip-path="url(#clip0_1259_17277)">
        <path
            d="M51.5291 17.4675C50.8909 18.0879 50.299 18.6638 49.6269 19.318C47.9761 17.8152 45.9669 17.2001 43.701 17.5674C42.1946 17.8116 40.8896 18.4908 39.8217 19.5944C37.6841 21.8032 37.226 25.2885 38.711 28.0197C40.2014 30.7634 43.3141 32.1486 46.5303 31.5015C49.2187 30.9595 50.907 29.1429 51.1993 26.3939C50.16 26.3939 49.1277 26.3939 48.0955 26.3939C47.0633 26.3939 46.0329 26.3939 44.9507 26.3939V23.7607C47.9066 23.7607 50.8517 23.7607 53.7986 23.7607C54.6864 27.5188 52.9874 32.9794 46.8583 34.1863C40.9502 35.3487 35.3915 31.1057 34.9601 25.1281C34.6784 21.2399 36.9978 17.4568 40.7416 15.6972C44.3713 13.9911 48.6268 14.6721 51.5327 17.4657L51.5291 17.4675Z"
            fill="#FAFBF8" />
        <path
            d="M92.3938 33.0524C89.9638 34.9404 86.9884 34.7068 84.8758 32.5265C82.5974 30.175 82.4441 26.5204 84.5157 23.9924C86.573 21.4858 89.4433 21.1043 92.3955 22.9834C92.4365 22.7177 92.4722 22.4735 92.5114 22.2203H95.1018C95.1018 22.7142 95.1018 23.1527 95.1018 23.5895C95.1018 26.7379 95.1107 29.888 95.0946 33.0364C95.0911 33.7459 95.0536 34.4644 94.936 35.1632C94.4814 37.8623 92.7788 39.5667 90.233 39.925C87.3824 40.3279 84.8526 39.0461 83.7152 36.6233C83.6778 36.5449 83.6724 36.454 83.6297 36.2757C84.3749 35.9601 85.1254 35.6428 85.867 35.329C87.3931 37.3881 88.7409 37.9354 90.5397 37.2562C91.957 36.7214 92.5774 35.3469 92.3938 33.0489V33.0524ZM92.6594 28.1052C92.6701 25.8393 91.3205 24.2687 89.3559 24.2562C87.3414 24.2438 85.8581 25.8411 85.8403 28.0411C85.8225 30.2036 87.3432 31.8705 89.3274 31.8651C91.226 31.8598 92.6487 30.2553 92.6576 28.1052H92.6594Z"
            fill="#FAFBF8" />
        <path
            d="M122.754 26.9394V34.0295H120.07V15.6955C121.063 15.6955 122.061 15.6955 123.059 15.6955C124.247 15.6955 125.434 15.6794 126.619 15.7008C129.943 15.7579 132.298 18.063 132.326 21.2684C132.355 24.4649 130.035 26.82 126.709 26.9305C125.437 26.9733 124.165 26.9376 122.754 26.9376V26.9394ZM122.819 18.4035V24.1975C124.257 24.1975 125.655 24.3063 127.028 24.169C128.509 24.021 129.529 22.6625 129.465 21.231C129.399 19.7673 128.219 18.4962 126.739 18.4178C125.466 18.3518 124.188 18.4035 122.817 18.4035H122.819Z"
            fill="#FAFBF8" />
        <path
            d="M148.555 25.8715C148.471 24.8803 147.842 24.1137 146.793 23.7339C145.173 23.1474 143.757 23.4826 142.614 24.9248C141.848 24.5594 141.087 24.1975 140.258 23.8017C141.165 22.1437 142.511 21.2987 144.235 20.9903C147.405 20.4233 150.241 21.8781 151.113 24.5308C151.259 24.9783 151.341 25.4525 151.4 25.9196C151.452 26.3297 151.437 26.7504 151.437 27.1658C151.441 29.421 151.437 31.6762 151.437 34.0045H148.679C148.656 33.5392 148.633 33.0489 148.601 32.3643C148.298 32.7066 148.102 32.9366 147.897 33.1594C146.474 34.6998 144.089 34.9297 141.999 33.7281C140.169 32.6745 139.35 30.6743 140.031 28.6865C140.719 26.6809 142.395 25.9036 144.31 25.7253C145.67 25.5987 147.061 25.8073 148.553 25.8697L148.555 25.8715ZM145.882 27.8022C145.142 28.0572 144.226 28.1998 143.533 28.674C143.103 28.9682 142.768 29.7989 142.846 30.3213C142.916 30.7866 143.538 31.3571 144.041 31.5389C145.75 32.1593 147.904 31.0219 148.483 29.2605C148.556 29.0359 148.362 28.5242 148.17 28.4476C147.496 28.1784 146.768 28.0393 145.882 27.804V27.8022Z"
            fill="#FAFBF8" />
        <path
            d="M152.484 21.6089C153.541 21.6089 154.424 21.5662 155.297 21.6375C155.52 21.6553 155.794 21.9958 155.909 22.249C157.014 24.7413 158.091 27.2478 159.246 29.9113C159.415 29.5744 159.54 29.3658 159.629 29.1447C160.533 26.8859 161.455 24.6343 162.312 22.3595C162.544 21.7444 162.863 21.5465 163.487 21.5893C164.245 21.641 165.01 21.6018 165.942 21.6018C165.17 23.3667 164.473 24.957 163.778 26.5508C161.975 30.6832 160.159 34.8103 158.388 38.9589C158.11 39.6096 157.775 39.8681 157.071 39.7985C156.397 39.7326 155.711 39.7843 154.876 39.7843C155.443 38.5684 155.848 37.3775 156.511 36.3524C157.729 34.4681 157.647 32.7691 156.606 30.7777C155.097 27.8914 153.915 24.8358 152.486 21.6107L152.484 21.6089Z"
            fill="#FAFBF8" />
        <path
            d="M61.534 21.7552C65.0978 21.7659 67.845 24.5203 67.8486 28.0841C67.8521 31.6282 65.0621 34.3897 61.4966 34.3719C57.9203 34.3558 55.1588 31.5908 55.1749 28.0448C55.1909 24.4971 57.9756 21.7428 61.5358 21.7534L61.534 21.7552ZM61.5251 24.2565C59.4731 24.2565 57.9774 25.8823 57.972 28.1144C57.9667 30.1574 59.5373 31.8368 61.4788 31.8635C63.4273 31.8903 65.0978 30.1467 65.0853 28.0983C65.071 25.8342 63.6056 24.2529 61.5251 24.2547V24.2565Z"
            fill="#FAFBF8" />
        <path
            d="M69.0181 28.1285C68.9985 24.5612 71.7297 21.7836 75.2864 21.7551C78.884 21.7266 81.6954 24.5077 81.6954 28.0911C81.6954 31.6209 78.8876 34.3878 75.322 34.3718C71.7761 34.3557 69.036 31.6423 69.0164 28.1285H69.0181ZM78.8965 28.0679C78.8804 25.7877 77.431 24.2403 75.3256 24.2563C73.3075 24.2706 71.76 25.966 71.7743 28.1463C71.7868 30.1555 73.4234 31.8581 75.3434 31.8634C77.3116 31.8688 78.9125 30.1591 78.8982 28.0697L78.8965 28.0679Z"
            fill="#FAFBF8" />
        <path
            d="M113.21 26.442C110.391 27.6187 107.644 28.765 104.898 29.9113C105.955 32.3555 108.678 32.4785 111.031 30.2197C111.707 30.6565 112.395 31.1004 113.079 31.5443C111.619 33.894 108.548 34.9351 105.843 34.0491C103.148 33.1649 101.417 30.5905 101.602 27.7381C101.869 23.6199 105.362 20.8887 109.034 21.9512C111.277 22.5984 112.406 24.3027 113.21 26.4438V26.442ZM104.426 27.8237C106.28 27.0535 108.116 26.2923 109.979 25.5186C109.115 24.2706 107.917 23.8998 106.626 24.3847C105.185 24.9249 104.274 26.3155 104.426 27.8237Z"
            fill="#FAFBF8" />
        <path d="M97.291 15.5298H99.9598V33.9511H97.291V15.5298Z" fill="#FAFBF8" />
        <path d="M134.822 15.7329H137.482V34.0313H134.822V15.7329Z" fill="#FAFBF8" />
        <path
            d="M82.0342 0.297607C82.9131 0.0355399 83.4426 0.270866 83.8936 1.06063C84.924 2.86301 86.065 4.603 87.1632 6.36794C87.1935 6.41786 87.2417 6.45708 87.3914 6.62466V0.254821C87.7818 0.23521 88.0653 0.222731 88.4201 0.204903V8.50904C87.682 8.79607 87.2452 8.54292 86.8459 7.86725C85.6746 5.88481 84.4338 3.94337 83.0414 2.02333V8.56253H82.0342V0.297607Z"
            fill="#FAFBF8" />
        <path
            d="M43.1395 1.28172C42.9202 1.5117 42.7419 1.70067 42.5619 1.88965C42.5672 1.8112 42.5726 1.73276 42.5779 1.65432C41.6313 1.44217 40.681 1.06422 39.738 1.07849C39.1104 1.0874 38.392 1.54557 37.8874 1.99483C36.7518 3.00388 36.5522 4.66007 37.2563 5.99358C37.9481 7.30035 39.3636 7.96354 40.8611 7.68365C42.1554 7.44119 42.9398 6.6122 43.1306 5.17529H40.2015V4.17337H44.1788C44.514 6.20395 43.4907 7.94037 41.6402 8.53581C39.4705 9.23466 37.1993 8.34862 36.2384 6.42858C35.2632 4.47644 35.864 2.01444 37.6182 0.782546C39.3244 -0.415475 41.6954 -0.230067 43.1377 1.28172H43.1395Z"
            fill="#FAFBF8" />
        <path
            d="M80.6845 4.44614C80.6702 6.90279 78.7751 8.7747 76.3238 8.75866C73.8975 8.74083 71.9774 6.79583 72.0042 4.38018C72.0309 1.90569 73.9831 -0.0197003 76.4361 0.0106068C78.8482 0.0409139 80.7005 1.97344 80.6863 4.44614H80.6845ZM73.1558 4.44257C73.1665 6.33231 74.5607 7.75852 76.3809 7.74248C78.2011 7.72643 79.6023 6.28417 79.6095 4.42296C79.6148 2.54749 78.1476 0.996478 76.3595 0.987565C74.5803 0.978651 73.1434 2.52788 73.1558 4.44436V4.44257Z"
            fill="#FAFBF8" />
        <path
            d="M45.6763 0.256836H50.4987V1.19101H46.7317V3.90795H50.1011C50.135 4.23598 50.1617 4.48735 50.2009 4.86173H46.7442V7.51449H50.4844C50.5076 7.89779 50.5254 8.18303 50.5468 8.54315H45.6781V0.256836H45.6763Z"
            fill="#FAFBF8" />
        <path
            d="M54.895 8.5555H53.8003V1.21049H51.4988V0.265625H57.1965C57.2108 0.53304 57.2268 0.80937 57.2482 1.19623H54.8932V8.5555H54.895Z"
            fill="#FAFBF8" />
        <path
            d="M65.5168 1.22288H63.2277C63.2028 0.873453 63.1832 0.598906 63.1582 0.261963H68.8577V1.19792H66.5972V8.56432H65.5168V1.22288Z"
            fill="#FAFBF8" />
        <path
            d="M60.9868 8.61444V0.251465H61.9495V8.56452C61.6464 8.58056 61.3665 8.59483 60.9868 8.61444Z"
            fill="#FAFBF8" />
        <path
            d="M26.425 27.0437L22.6025 29.3025C22.3413 29.465 22.025 29.4 21.805 29.1562L19.2338 26.1175C18.9588 25.7925 18.9588 25.2887 19.2338 24.9637L21.8463 21.8762C22.0525 21.6325 22.3825 21.5675 22.6438 21.73L26.425 23.9725C27.5113 24.59 27.5113 26.41 26.425 27.0437ZM19.4125 19.7979C19.8388 20.0416 19.9213 20.7079 19.5913 21.0979L17.295 23.8116L16.3188 24.9654C16.0438 25.2904 15.6175 25.2904 15.3425 24.9654L5.52502 13.3645C4.97639 12.7145 5.62127 11.6582 6.32252 12.0645L19.4125 19.7979ZM-0.249984 38.7437V11.655C-0.249984 10.94 0.478766 10.5662 0.918766 11.07L12.9775 24.8987C13.2663 25.2237 13.2525 25.76 12.9638 26.085L0.905016 39.345C0.806642 39.4528 0.683721 39.5243 0.551403 39.5505C0.419085 39.5768 0.283154 39.5568 0.160366 39.4928C0.0375782 39.4289 -0.0667006 39.3239 -0.139616 39.1908C-0.212532 39.0577 -0.250898 38.9023 -0.249984 38.7437ZM19.3713 31.2184L6.46002 38.8559C5.75877 39.2621 5.11252 38.2059 5.66252 37.5559L15.3563 26.0996C15.6313 25.7746 16.0575 25.7746 16.3325 26.0996L19.5638 29.9184C19.88 30.3084 19.7838 30.9746 19.3713 31.2184Z"
            fill="#FAFBF8" />
    </g>
    <defs>
        <clipPath id="clip0_1259_17277">
            <rect width="165.94" height="40" fill="white" />
        </clipPath>
    </defs>
</svg>
    