<svg width="114" height="114" viewBox="0 0 114 114" fill="none" xmlns="http://www.w3.org/2000/svg">
    <path
        d="M27.1595 59.7348H32.6022V65.1775H38.0449V70.6202H10.8584V65.1775H16.3011V54.3191H27.1595V59.7618V59.7348ZM97.7528 108.584H103.169V103.142H97.7528V108.584ZM32.5753 59.7348H38.018V54.2921H32.5753V59.7348ZM108.584 108.584H114.027V103.142H108.584V108.584ZM43.4606 114H54.3191V108.557H43.4606V114ZM92.3101 114V108.557H86.8674V114H92.3101ZM70.5932 114H76.0359V103.142H70.5932V114ZM27.1595 43.4337V48.8764H43.4337V43.4337H27.1595ZM21.7438 48.8494V43.4068H10.8854V54.2652H16.3281V48.8225H21.7707L21.7438 48.8494ZM38.018 37.991H0V0H37.991V37.991H38.018ZM32.5753 5.41574H5.44268V32.5483H32.6022V5.44268L32.5753 5.41574ZM10.8584 103.142H27.1326V86.8674H10.8584V103.142ZM65.1506 97.6989V103.142H70.5932V97.6989H65.1506ZM27.1595 10.8584H10.8854V27.1326H27.1595V10.8584ZM114 0V37.991H76.009V0H114ZM108.557 5.44268H81.4247V32.5753H108.557V5.44268ZM0 76.009H37.991V114H0V76.009ZM5.44268 108.584H32.6022V81.4247H5.44268V108.584ZM5.44268 43.4337H0V70.5932H5.44268V43.4337ZM76.009 70.5663V75.982H81.4517V70.5663H76.009ZM59.7348 92.2831V86.8405H54.3191V92.2831H43.4606V103.142H54.3191V108.584H59.7348V97.7258H65.1775V92.2831H59.7348ZM43.4606 21.7169H54.3191V16.2742H43.4606V21.7169ZM86.8943 65.1506H97.7528V70.5932H103.169V54.3191H97.7528V43.4606H92.3101V59.7348H76.0359V65.1775H81.4786V70.6202H86.9213V65.1775L86.8943 65.1506ZM92.337 81.4247H86.8943V75.982H81.4517V86.8405H65.1775V92.2831H76.0359V103.142H81.4786V108.584H86.9213V97.7258H108.638V92.2831H92.364V81.4247H92.337ZM92.337 81.4247H97.7797V70.5663H92.337V81.4247ZM48.9033 81.4247V75.982H54.3191V70.5663H59.7348V65.1236H65.1775V54.2652H81.4517V43.4068H76.009V48.8494H70.5663V27.1326H65.1236V16.2742H70.5663V0H65.1236V10.8584H59.6809V0H43.4068V10.8584H48.8494V5.41574H54.2652V16.2742H59.7079V32.5483H65.1506V37.991H59.7079V48.8494H54.2652V37.991H48.8494V32.5753H43.4068V43.4337H48.8494V48.8764H43.4068V65.1775H48.8494V54.3191H54.2652V65.1775H48.8494V70.6202H43.4068V86.8943H54.2652V81.4517H48.8494L48.9033 81.4247ZM108.611 86.8674V81.4247H97.7528V86.8674H108.611ZM103.169 10.8584H86.8943V27.1326H103.169V10.8584ZM59.7348 81.4247H70.5932V75.982H65.1506V70.5663H59.7079V81.4247H59.7348ZM70.5932 70.5663V65.1236H65.1506V70.5663H70.5932ZM103.169 48.8494H114.027V43.4068H103.169V48.8494ZM108.611 92.2831H114.054V86.8405H108.611V92.2831ZM108.611 59.7079H114.054V54.2652H108.611V59.7079ZM59.7618 32.5483H54.346V37.991H59.7618V32.5483Z"
        fill="#38404F" />
</svg>
    