<svg width="24" height="24" viewBox="0 0 24 24" fill="none" xmlns="http://www.w3.org/2000/svg">
    <path d="M13.3906 7.54087L7.82727 2.06348L2.0826 7.75469L7.64596 13.2344L13.3906 7.54087Z"
        fill="#010066" />
    <path
        d="M13.8626 6.66274C14.2 6.99484 14.7462 6.99484 15.0836 6.66274L15.1318 6.61497C15.4439 6.30561 15.4233 5.84158 15.1869 5.47309C13.8213 3.344 11.5262 1.11483 9.80483 0.161742C9.42155 -0.0498024 8.96712 -0.079373 8.65957 0.227707L8.5976 0.289123C8.26481 0.618949 8.26711 1.1535 8.5999 1.48105L13.8626 6.66501V6.66274Z"
        fill="#010066" />
    <path
        d="M6.75753 13.7028C7.09491 14.0349 7.09721 14.574 6.75983 14.9084L6.71163 14.9562C6.39949 15.2655 5.93129 15.2473 5.55489 15.013C3.39978 13.671 1.1368 11.4122 0.165968 9.71305C-0.0497723 9.33546 -0.0819049 8.88735 0.227935 8.58027L0.289903 8.51885C0.622694 8.18903 1.16205 8.18903 1.49713 8.51885L6.75983 13.7028H6.75753Z"
        fill="#010066" />
    <path
        d="M23.345 23.0173C23.4529 22.965 23.4965 22.8445 23.5929 22.7717C23.8683 22.4055 24.0129 21.9573 23.9991 21.4956C23.9853 20.9315 23.7375 20.3992 23.3129 20.0216L12.0966 10.2314L11.2176 11.0753L10.3661 11.9465L20.3109 22.9969C20.6941 23.4131 21.2358 23.6565 21.805 23.6702C22.2732 23.6815 22.7253 23.536 23.0971 23.263C23.1683 23.1675 23.2899 23.1243 23.345 23.0173Z"
        fill="#010066" />
    <path
        d="M13.6646 19.6104L14.3096 20.3291V21.0866H14.9132L15.7188 21.885V24.0005H0.421819V21.885L1.2274 21.0866H1.83102V20.3291L2.47365 19.6104H13.6646Z"
        fill="#008f59" />
</svg>
    