<svg width="1512" height="120" viewBox="0 0 1512 120" fill="none" xmlns="http://www.w3.org/2000/svg">
    <g clip-path="url(#clip0_1254_14848)">
        <path d="M38.7815 15.0817L27.6548 4.12695L16.1654 15.5094L27.2922 26.4687L38.7815 15.0817Z"
            fill="#F8F5F1" />
        <path
            d="M39.7225 13.3255C40.3973 13.9897 41.4897 13.9897 42.1645 13.3255L42.2609 13.2299C42.8852 12.6112 42.8439 11.6832 42.3711 10.9462C39.6399 6.688 35.0497 2.22965 31.607 0.323483C30.8404 -0.0996047 29.9315 -0.158746 29.3165 0.455414L29.1925 0.578246C28.5269 1.2379 28.5315 2.30699 29.1971 2.9621L39.7225 13.33V13.3255Z"
            fill="#F8F5F1" />
        <path
            d="M25.5158 27.4056C26.1906 28.0698 26.1952 29.148 25.5204 29.8168L25.424 29.9123C24.7997 30.531 23.8633 30.4946 23.1105 30.0261C18.8003 27.3419 14.2743 22.8245 12.3327 19.4261C11.9012 18.6709 11.8369 17.7747 12.4566 17.1605L12.5805 17.0377C13.2461 16.3781 14.3248 16.3781 14.995 17.0377L25.5204 27.4056H25.5158Z"
            fill="#F8F5F1" />
        <path
            d="M58.6893 46.0352C58.905 45.9305 58.9922 45.6894 59.185 45.5438C59.7358 44.8114 60.025 43.9152 59.9975 42.9917C59.9699 41.8634 59.4742 40.7989 58.625 40.0437L36.1926 20.4634L34.4345 22.1512L32.7315 23.8936L52.621 45.9942C53.3875 46.8268 54.4708 47.3135 55.6092 47.3408C56.5456 47.3636 57.4499 47.0724 58.1935 46.5265C58.3358 46.3354 58.5791 46.249 58.6893 46.0352Z"
            fill="#F8F5F1" />
        <path
            d="M39.3278 39.2197L40.6176 40.6573V42.1722H41.8249L43.436 43.7691V47.9999H12.8422V43.7691L14.4533 42.1722H15.6606V40.6573L16.9458 39.2197H39.3278Z"
            fill="#F8F5F1" />
    </g>
    <g clip-path="url(#clip1_1254_14848)">
        <path d="M110.781 15.0817L99.6548 4.12695L88.1654 15.5094L99.2922 26.4687L110.781 15.0817Z"
            fill="#F8F5F1" />
        <path
            d="M111.723 13.3255C112.397 13.9897 113.49 13.9897 114.165 13.3255L114.261 13.2299C114.885 12.6112 114.844 11.6832 114.371 10.9462C111.64 6.688 107.05 2.22965 103.607 0.323483C102.84 -0.0996047 101.932 -0.158746 101.316 0.455414L101.193 0.578246C100.527 1.2379 100.532 2.30699 101.197 2.9621L111.723 13.33V13.3255Z"
            fill="#F8F5F1" />
        <path
            d="M97.5158 27.4056C98.1906 28.0698 98.1952 29.148 97.5204 29.8168L97.424 29.9123C96.7997 30.531 95.8633 30.4946 95.1105 30.0261C90.8003 27.3419 86.2743 22.8245 84.3327 19.4261C83.9012 18.6709 83.8369 17.7747 84.4566 17.1605L84.5805 17.0377C85.2461 16.3781 86.3248 16.3781 86.995 17.0377L97.5204 27.4056H97.5158Z"
            fill="#F8F5F1" />
        <path
            d="M130.689 46.0352C130.905 45.9305 130.992 45.6894 131.185 45.5438C131.736 44.8114 132.025 43.9152 131.997 42.9917C131.97 41.8634 131.474 40.7989 130.625 40.0437L108.193 20.4634L106.434 22.1512L104.732 23.8936L124.621 45.9942C125.388 46.8268 126.471 47.3135 127.609 47.3408C128.546 47.3636 129.45 47.0724 130.194 46.5265C130.336 46.3354 130.579 46.249 130.689 46.0352Z"
            fill="#F8F5F1" />
        <path
            d="M111.328 39.2197L112.618 40.6573V42.1722H113.825L115.436 43.7691V47.9999H84.8422V43.7691L86.4533 42.1722H87.6606V40.6573L88.9458 39.2197H111.328Z"
            fill="#F8F5F1" />
    </g>
    <g clip-path="url(#clip2_1254_14848)">
        <path d="M182.781 15.0817L171.655 4.12695L160.165 15.5094L171.292 26.4687L182.781 15.0817Z"
            fill="#F8F5F1" />
        <path
            d="M183.723 13.3255C184.397 13.9897 185.49 13.9897 186.165 13.3255L186.261 13.2299C186.885 12.6112 186.844 11.6832 186.371 10.9462C183.64 6.688 179.05 2.22965 175.607 0.323483C174.84 -0.0996047 173.932 -0.158746 173.316 0.455414L173.193 0.578246C172.527 1.2379 172.532 2.30699 173.197 2.9621L183.723 13.33V13.3255Z"
            fill="#F8F5F1" />
        <path
            d="M169.516 27.4056C170.191 28.0698 170.195 29.148 169.52 29.8168L169.424 29.9123C168.8 30.531 167.863 30.4946 167.111 30.0261C162.8 27.3419 158.274 22.8245 156.333 19.4261C155.901 18.6709 155.837 17.7747 156.457 17.1605L156.581 17.0377C157.246 16.3781 158.325 16.3781 158.995 17.0377L169.52 27.4056H169.516Z"
            fill="#F8F5F1" />
        <path
            d="M202.689 46.0352C202.905 45.9305 202.992 45.6894 203.185 45.5438C203.736 44.8114 204.025 43.9152 203.997 42.9917C203.97 41.8634 203.474 40.7989 202.625 40.0437L180.193 20.4634L178.434 22.1512L176.732 23.8936L196.621 45.9942C197.388 46.8268 198.471 47.3135 199.609 47.3408C200.546 47.3636 201.45 47.0724 202.194 46.5265C202.336 46.3354 202.579 46.249 202.689 46.0352Z"
            fill="#F8F5F1" />
        <path
            d="M183.328 39.2197L184.618 40.6573V42.1722H185.825L187.436 43.7691V47.9999H156.842V43.7691L158.453 42.1722H159.661V40.6573L160.946 39.2197H183.328Z"
            fill="#F8F5F1" />
    </g>
    <g clip-path="url(#clip3_1254_14848)">
        <path d="M254.781 15.0817L243.655 4.12695L232.165 15.5094L243.292 26.4687L254.781 15.0817Z"
            fill="#F8F5F1" />
        <path
            d="M255.723 13.3255C256.397 13.9897 257.49 13.9897 258.165 13.3255L258.261 13.2299C258.885 12.6112 258.844 11.6832 258.371 10.9462C255.64 6.688 251.05 2.22965 247.607 0.323483C246.84 -0.0996047 245.932 -0.158746 245.316 0.455414L245.193 0.578246C244.527 1.2379 244.532 2.30699 245.197 2.9621L255.723 13.33V13.3255Z"
            fill="#F8F5F1" />
        <path
            d="M241.516 27.4056C242.191 28.0698 242.195 29.148 241.52 29.8168L241.424 29.9123C240.8 30.531 239.863 30.4946 239.111 30.0261C234.8 27.3419 230.274 22.8245 228.333 19.4261C227.901 18.6709 227.837 17.7747 228.457 17.1605L228.581 17.0377C229.246 16.3781 230.325 16.3781 230.995 17.0377L241.52 27.4056H241.516Z"
            fill="#F8F5F1" />
        <path
            d="M274.689 46.0352C274.905 45.9305 274.992 45.6894 275.185 45.5438C275.736 44.8114 276.025 43.9152 275.997 42.9917C275.97 41.8634 275.474 40.7989 274.625 40.0437L252.193 20.4634L250.434 22.1512L248.732 23.8936L268.621 45.9942C269.388 46.8268 270.471 47.3135 271.609 47.3408C272.546 47.3636 273.45 47.0724 274.194 46.5265C274.336 46.3354 274.579 46.249 274.689 46.0352Z"
            fill="#F8F5F1" />
        <path
            d="M255.328 39.2197L256.618 40.6573V42.1722H257.825L259.436 43.7691V47.9999H228.842V43.7691L230.453 42.1722H231.661V40.6573L232.946 39.2197H255.328Z"
            fill="#F8F5F1" />
    </g>
    <g clip-path="url(#clip4_1254_14848)">
        <path d="M326.781 15.0817L315.655 4.12695L304.165 15.5094L315.292 26.4687L326.781 15.0817Z"
            fill="#F8F5F1" />
        <path
            d="M327.723 13.3255C328.397 13.9897 329.49 13.9897 330.165 13.3255L330.261 13.2299C330.885 12.6112 330.844 11.6832 330.371 10.9462C327.64 6.688 323.05 2.22965 319.607 0.323483C318.84 -0.0996047 317.932 -0.158746 317.316 0.455414L317.193 0.578246C316.527 1.2379 316.532 2.30699 317.197 2.9621L327.723 13.33V13.3255Z"
            fill="#F8F5F1" />
        <path
            d="M313.516 27.4056C314.191 28.0698 314.195 29.148 313.52 29.8168L313.424 29.9123C312.8 30.531 311.863 30.4946 311.111 30.0261C306.8 27.3419 302.274 22.8245 300.333 19.4261C299.901 18.6709 299.837 17.7747 300.457 17.1605L300.581 17.0377C301.246 16.3781 302.325 16.3781 302.995 17.0377L313.52 27.4056H313.516Z"
            fill="#F8F5F1" />
        <path
            d="M346.689 46.0352C346.905 45.9305 346.992 45.6894 347.185 45.5438C347.736 44.8114 348.025 43.9152 347.997 42.9917C347.97 41.8634 347.474 40.7989 346.625 40.0437L324.193 20.4634L322.434 22.1512L320.732 23.8936L340.621 45.9942C341.388 46.8268 342.471 47.3135 343.609 47.3408C344.546 47.3636 345.45 47.0724 346.194 46.5265C346.336 46.3354 346.579 46.249 346.689 46.0352Z"
            fill="#F8F5F1" />
        <path
            d="M327.328 39.2197L328.618 40.6573V42.1722H329.825L331.436 43.7691V47.9999H300.842V43.7691L302.453 42.1722H303.661V40.6573L304.946 39.2197H327.328Z"
            fill="#F8F5F1" />
    </g>
    <g clip-path="url(#clip5_1254_14848)">
        <path d="M398.781 15.0817L387.655 4.12695L376.165 15.5094L387.292 26.4687L398.781 15.0817Z"
            fill="#F8F5F1" />
        <path
            d="M399.723 13.3255C400.397 13.9897 401.49 13.9897 402.165 13.3255L402.261 13.2299C402.885 12.6112 402.844 11.6832 402.371 10.9462C399.64 6.688 395.05 2.22965 391.607 0.323483C390.84 -0.0996047 389.932 -0.158746 389.316 0.455414L389.193 0.578246C388.527 1.2379 388.532 2.30699 389.197 2.9621L399.723 13.33V13.3255Z"
            fill="#F8F5F1" />
        <path
            d="M385.516 27.4056C386.191 28.0698 386.195 29.148 385.52 29.8168L385.424 29.9123C384.8 30.531 383.863 30.4946 383.111 30.0261C378.8 27.3419 374.274 22.8245 372.333 19.4261C371.901 18.6709 371.837 17.7747 372.457 17.1605L372.581 17.0377C373.246 16.3781 374.325 16.3781 374.995 17.0377L385.52 27.4056H385.516Z"
            fill="#F8F5F1" />
        <path
            d="M418.689 46.0352C418.905 45.9305 418.992 45.6894 419.185 45.5438C419.736 44.8114 420.025 43.9152 419.997 42.9917C419.97 41.8634 419.474 40.7989 418.625 40.0437L396.193 20.4634L394.434 22.1512L392.732 23.8936L412.621 45.9942C413.388 46.8268 414.471 47.3135 415.609 47.3408C416.546 47.3636 417.45 47.0724 418.194 46.5265C418.336 46.3354 418.579 46.249 418.689 46.0352Z"
            fill="#F8F5F1" />
        <path
            d="M399.328 39.2197L400.618 40.6573V42.1722H401.825L403.436 43.7691V47.9999H372.842V43.7691L374.453 42.1722H375.661V40.6573L376.946 39.2197H399.328Z"
            fill="#F8F5F1" />
    </g>
    <g clip-path="url(#clip6_1254_14848)">
        <path d="M470.781 15.0817L459.655 4.12695L448.165 15.5094L459.292 26.4687L470.781 15.0817Z"
            fill="#F8F5F1" />
        <path
            d="M471.723 13.3255C472.397 13.9897 473.49 13.9897 474.165 13.3255L474.261 13.2299C474.885 12.6112 474.844 11.6832 474.371 10.9462C471.64 6.688 467.05 2.22965 463.607 0.323483C462.84 -0.0996047 461.932 -0.158746 461.316 0.455414L461.193 0.578246C460.527 1.2379 460.532 2.30699 461.197 2.9621L471.723 13.33V13.3255Z"
            fill="#F8F5F1" />
        <path
            d="M457.516 27.4056C458.191 28.0698 458.195 29.148 457.52 29.8168L457.424 29.9123C456.8 30.531 455.863 30.4946 455.111 30.0261C450.8 27.3419 446.274 22.8245 444.333 19.4261C443.901 18.6709 443.837 17.7747 444.457 17.1605L444.581 17.0377C445.246 16.3781 446.325 16.3781 446.995 17.0377L457.52 27.4056H457.516Z"
            fill="#F8F5F1" />
        <path
            d="M490.689 46.0352C490.905 45.9305 490.992 45.6894 491.185 45.5438C491.736 44.8114 492.025 43.9152 491.997 42.9917C491.97 41.8634 491.474 40.7989 490.625 40.0437L468.193 20.4634L466.434 22.1512L464.732 23.8936L484.621 45.9942C485.388 46.8268 486.471 47.3135 487.609 47.3408C488.546 47.3636 489.45 47.0724 490.194 46.5265C490.336 46.3354 490.579 46.249 490.689 46.0352Z"
            fill="#F8F5F1" />
        <path
            d="M471.328 39.2197L472.618 40.6573V42.1722H473.825L475.436 43.7691V47.9999H444.842V43.7691L446.453 42.1722H447.661V40.6573L448.946 39.2197H471.328Z"
            fill="#F8F5F1" />
    </g>
    <g clip-path="url(#clip7_1254_14848)">
        <path d="M542.781 15.0817L531.655 4.12695L520.165 15.5094L531.292 26.4687L542.781 15.0817Z"
            fill="#F8F5F1" />
        <path
            d="M543.723 13.3255C544.397 13.9897 545.49 13.9897 546.165 13.3255L546.261 13.2299C546.885 12.6112 546.844 11.6832 546.371 10.9462C543.64 6.688 539.05 2.22965 535.607 0.323483C534.84 -0.0996047 533.932 -0.158746 533.316 0.455414L533.193 0.578246C532.527 1.2379 532.532 2.30699 533.197 2.9621L543.723 13.33V13.3255Z"
            fill="#F8F5F1" />
        <path
            d="M529.516 27.4056C530.191 28.0698 530.195 29.148 529.52 29.8168L529.424 29.9123C528.8 30.531 527.863 30.4946 527.111 30.0261C522.8 27.3419 518.274 22.8245 516.333 19.4261C515.901 18.6709 515.837 17.7747 516.457 17.1605L516.581 17.0377C517.246 16.3781 518.325 16.3781 518.995 17.0377L529.52 27.4056H529.516Z"
            fill="#F8F5F1" />
        <path
            d="M562.689 46.0352C562.905 45.9305 562.992 45.6894 563.185 45.5438C563.736 44.8114 564.025 43.9152 563.997 42.9917C563.97 41.8634 563.474 40.7989 562.625 40.0437L540.193 20.4634L538.434 22.1512L536.732 23.8936L556.621 45.9942C557.388 46.8268 558.471 47.3135 559.609 47.3408C560.546 47.3636 561.45 47.0724 562.194 46.5265C562.336 46.3354 562.579 46.249 562.689 46.0352Z"
            fill="#F8F5F1" />
        <path
            d="M543.328 39.2197L544.618 40.6573V42.1722H545.825L547.436 43.7691V47.9999H516.842V43.7691L518.453 42.1722H519.661V40.6573L520.946 39.2197H543.328Z"
            fill="#F8F5F1" />
    </g>
    <g clip-path="url(#clip8_1254_14848)">
        <path d="M614.781 15.0817L603.655 4.12695L592.165 15.5094L603.292 26.4687L614.781 15.0817Z"
            fill="#F8F5F1" />
        <path
            d="M615.723 13.3255C616.397 13.9897 617.49 13.9897 618.165 13.3255L618.261 13.2299C618.885 12.6112 618.844 11.6832 618.371 10.9462C615.64 6.688 611.05 2.22965 607.607 0.323483C606.84 -0.0996047 605.932 -0.158746 605.316 0.455414L605.193 0.578246C604.527 1.2379 604.532 2.30699 605.197 2.9621L615.723 13.33V13.3255Z"
            fill="#F8F5F1" />
        <path
            d="M601.516 27.4056C602.191 28.0698 602.195 29.148 601.52 29.8168L601.424 29.9123C600.8 30.531 599.863 30.4946 599.111 30.0261C594.8 27.3419 590.274 22.8245 588.333 19.4261C587.901 18.6709 587.837 17.7747 588.457 17.1605L588.581 17.0377C589.246 16.3781 590.325 16.3781 590.995 17.0377L601.52 27.4056H601.516Z"
            fill="#F8F5F1" />
        <path
            d="M634.689 46.0352C634.905 45.9305 634.992 45.6894 635.185 45.5438C635.736 44.8114 636.025 43.9152 635.997 42.9917C635.97 41.8634 635.474 40.7989 634.625 40.0437L612.193 20.4634L610.434 22.1512L608.732 23.8936L628.621 45.9942C629.388 46.8268 630.471 47.3135 631.609 47.3408C632.546 47.3636 633.45 47.0724 634.194 46.5265C634.336 46.3354 634.579 46.249 634.689 46.0352Z"
            fill="#F8F5F1" />
        <path
            d="M615.328 39.2197L616.618 40.6573V42.1722H617.825L619.436 43.7691V47.9999H588.842V43.7691L590.453 42.1722H591.661V40.6573L592.946 39.2197H615.328Z"
            fill="#F8F5F1" />
    </g>
    <g clip-path="url(#clip9_1254_14848)">
        <path d="M686.781 15.0817L675.655 4.12695L664.165 15.5094L675.292 26.4687L686.781 15.0817Z"
            fill="#F8F5F1" />
        <path
            d="M687.723 13.3255C688.397 13.9897 689.49 13.9897 690.165 13.3255L690.261 13.2299C690.885 12.6112 690.844 11.6832 690.371 10.9462C687.64 6.688 683.05 2.22965 679.607 0.323483C678.84 -0.0996047 677.932 -0.158746 677.316 0.455414L677.193 0.578246C676.527 1.2379 676.532 2.30699 677.197 2.9621L687.723 13.33V13.3255Z"
            fill="#F8F5F1" />
        <path
            d="M673.516 27.4056C674.191 28.0698 674.195 29.148 673.52 29.8168L673.424 29.9123C672.8 30.531 671.863 30.4946 671.111 30.0261C666.8 27.3419 662.274 22.8245 660.333 19.4261C659.901 18.6709 659.837 17.7747 660.457 17.1605L660.581 17.0377C661.246 16.3781 662.325 16.3781 662.995 17.0377L673.52 27.4056H673.516Z"
            fill="#F8F5F1" />
        <path
            d="M706.689 46.0352C706.905 45.9305 706.992 45.6894 707.185 45.5438C707.736 44.8114 708.025 43.9152 707.997 42.9917C707.97 41.8634 707.474 40.7989 706.625 40.0437L684.193 20.4634L682.434 22.1512L680.732 23.8936L700.621 45.9942C701.388 46.8268 702.471 47.3135 703.609 47.3408C704.546 47.3636 705.45 47.0724 706.194 46.5265C706.336 46.3354 706.579 46.249 706.689 46.0352Z"
            fill="#F8F5F1" />
        <path
            d="M687.328 39.2197L688.618 40.6573V42.1722H689.825L691.436 43.7691V47.9999H660.842V43.7691L662.453 42.1722H663.661V40.6573L664.946 39.2197H687.328Z"
            fill="#F8F5F1" />
    </g>
    <g clip-path="url(#clip10_1254_14848)">
        <path d="M758.781 15.0817L747.655 4.12695L736.165 15.5094L747.292 26.4687L758.781 15.0817Z"
            fill="#F8F5F1" />
        <path
            d="M759.723 13.3255C760.397 13.9897 761.49 13.9897 762.165 13.3255L762.261 13.2299C762.885 12.6112 762.844 11.6832 762.371 10.9462C759.64 6.688 755.05 2.22965 751.607 0.323483C750.84 -0.0996047 749.932 -0.158746 749.316 0.455414L749.193 0.578246C748.527 1.2379 748.532 2.30699 749.197 2.9621L759.723 13.33V13.3255Z"
            fill="#F8F5F1" />
        <path
            d="M745.516 27.4056C746.191 28.0698 746.195 29.148 745.52 29.8168L745.424 29.9123C744.8 30.531 743.863 30.4946 743.111 30.0261C738.8 27.3419 734.274 22.8245 732.333 19.4261C731.901 18.6709 731.837 17.7747 732.457 17.1605L732.581 17.0377C733.246 16.3781 734.325 16.3781 734.995 17.0377L745.52 27.4056H745.516Z"
            fill="#F8F5F1" />
        <path
            d="M778.689 46.0352C778.905 45.9305 778.992 45.6894 779.185 45.5438C779.736 44.8114 780.025 43.9152 779.997 42.9917C779.97 41.8634 779.474 40.7989 778.625 40.0437L756.193 20.4634L754.434 22.1512L752.732 23.8936L772.621 45.9942C773.388 46.8268 774.471 47.3135 775.609 47.3408C776.546 47.3636 777.45 47.0724 778.194 46.5265C778.336 46.3354 778.579 46.249 778.689 46.0352Z"
            fill="#F8F5F1" />
        <path
            d="M759.328 39.2197L760.618 40.6573V42.1722H761.825L763.436 43.7691V47.9999H732.842V43.7691L734.453 42.1722H735.661V40.6573L736.946 39.2197H759.328Z"
            fill="#F8F5F1" />
    </g>
    <g clip-path="url(#clip11_1254_14848)">
        <path d="M830.781 15.0817L819.655 4.12695L808.165 15.5094L819.292 26.4687L830.781 15.0817Z"
            fill="#F8F5F1" />
        <path
            d="M831.723 13.3255C832.397 13.9897 833.49 13.9897 834.165 13.3255L834.261 13.2299C834.885 12.6112 834.844 11.6832 834.371 10.9462C831.64 6.688 827.05 2.22965 823.607 0.323483C822.84 -0.0996047 821.932 -0.158746 821.316 0.455414L821.193 0.578246C820.527 1.2379 820.532 2.30699 821.197 2.9621L831.723 13.33V13.3255Z"
            fill="#F8F5F1" />
        <path
            d="M817.516 27.4056C818.191 28.0698 818.195 29.148 817.52 29.8168L817.424 29.9123C816.8 30.531 815.863 30.4946 815.111 30.0261C810.8 27.3419 806.274 22.8245 804.333 19.4261C803.901 18.6709 803.837 17.7747 804.457 17.1605L804.581 17.0377C805.246 16.3781 806.325 16.3781 806.995 17.0377L817.52 27.4056H817.516Z"
            fill="#F8F5F1" />
        <path
            d="M850.689 46.0352C850.905 45.9305 850.992 45.6894 851.185 45.5438C851.736 44.8114 852.025 43.9152 851.997 42.9917C851.97 41.8634 851.474 40.7989 850.625 40.0437L828.193 20.4634L826.434 22.1512L824.732 23.8936L844.621 45.9942C845.388 46.8268 846.471 47.3135 847.609 47.3408C848.546 47.3636 849.45 47.0724 850.194 46.5265C850.336 46.3354 850.579 46.249 850.689 46.0352Z"
            fill="#F8F5F1" />
        <path
            d="M831.328 39.2197L832.618 40.6573V42.1722H833.825L835.436 43.7691V47.9999H804.842V43.7691L806.453 42.1722H807.661V40.6573L808.946 39.2197H831.328Z"
            fill="#F8F5F1" />
    </g>
    <g clip-path="url(#clip12_1254_14848)">
        <path d="M902.781 15.0817L891.655 4.12695L880.165 15.5094L891.292 26.4687L902.781 15.0817Z"
            fill="#F8F5F1" />
        <path
            d="M903.723 13.3255C904.397 13.9897 905.49 13.9897 906.165 13.3255L906.261 13.2299C906.885 12.6112 906.844 11.6832 906.371 10.9462C903.64 6.688 899.05 2.22965 895.607 0.323483C894.84 -0.0996047 893.932 -0.158746 893.316 0.455414L893.193 0.578246C892.527 1.2379 892.532 2.30699 893.197 2.9621L903.723 13.33V13.3255Z"
            fill="#F8F5F1" />
        <path
            d="M889.516 27.4056C890.191 28.0698 890.195 29.148 889.52 29.8168L889.424 29.9123C888.8 30.531 887.863 30.4946 887.111 30.0261C882.8 27.3419 878.274 22.8245 876.333 19.4261C875.901 18.6709 875.837 17.7747 876.457 17.1605L876.581 17.0377C877.246 16.3781 878.325 16.3781 878.995 17.0377L889.52 27.4056H889.516Z"
            fill="#F8F5F1" />
        <path
            d="M922.689 46.0352C922.905 45.9305 922.992 45.6894 923.185 45.5438C923.736 44.8114 924.025 43.9152 923.997 42.9917C923.97 41.8634 923.474 40.7989 922.625 40.0437L900.193 20.4634L898.434 22.1512L896.732 23.8936L916.621 45.9942C917.388 46.8268 918.471 47.3135 919.609 47.3408C920.546 47.3636 921.45 47.0724 922.194 46.5265C922.336 46.3354 922.579 46.249 922.689 46.0352Z"
            fill="#F8F5F1" />
        <path
            d="M903.328 39.2197L904.618 40.6573V42.1722H905.825L907.436 43.7691V47.9999H876.842V43.7691L878.453 42.1722H879.661V40.6573L880.946 39.2197H903.328Z"
            fill="#F8F5F1" />
    </g>
    <g clip-path="url(#clip13_1254_14848)">
        <path d="M974.781 15.0817L963.655 4.12695L952.165 15.5094L963.292 26.4687L974.781 15.0817Z"
            fill="#F8F5F1" />
        <path
            d="M975.723 13.3255C976.397 13.9897 977.49 13.9897 978.165 13.3255L978.261 13.2299C978.885 12.6112 978.844 11.6832 978.371 10.9462C975.64 6.688 971.05 2.22965 967.607 0.323483C966.84 -0.0996047 965.932 -0.158746 965.316 0.455414L965.193 0.578246C964.527 1.2379 964.532 2.30699 965.197 2.9621L975.723 13.33V13.3255Z"
            fill="#F8F5F1" />
        <path
            d="M961.516 27.4056C962.191 28.0698 962.195 29.148 961.52 29.8168L961.424 29.9123C960.8 30.531 959.863 30.4946 959.111 30.0261C954.8 27.3419 950.274 22.8245 948.333 19.4261C947.901 18.6709 947.837 17.7747 948.457 17.1605L948.581 17.0377C949.246 16.3781 950.325 16.3781 950.995 17.0377L961.52 27.4056H961.516Z"
            fill="#F8F5F1" />
        <path
            d="M994.689 46.0352C994.905 45.9305 994.992 45.6894 995.185 45.5438C995.736 44.8114 996.025 43.9152 995.997 42.9917C995.97 41.8634 995.474 40.7989 994.625 40.0437L972.193 20.4634L970.434 22.1512L968.732 23.8936L988.621 45.9942C989.388 46.8268 990.471 47.3135 991.609 47.3408C992.546 47.3636 993.45 47.0724 994.194 46.5265C994.336 46.3354 994.579 46.249 994.689 46.0352Z"
            fill="#F8F5F1" />
        <path
            d="M975.328 39.2197L976.618 40.6573V42.1722H977.825L979.436 43.7691V47.9999H948.842V43.7691L950.453 42.1722H951.661V40.6573L952.946 39.2197H975.328Z"
            fill="#F8F5F1" />
    </g>
    <g clip-path="url(#clip14_1254_14848)">
        <path d="M1046.78 15.0817L1035.65 4.12695L1024.17 15.5094L1035.29 26.4687L1046.78 15.0817Z"
            fill="#F8F5F1" />
        <path
            d="M1047.72 13.3255C1048.4 13.9897 1049.49 13.9897 1050.16 13.3255L1050.26 13.2299C1050.89 12.6112 1050.84 11.6832 1050.37 10.9462C1047.64 6.688 1043.05 2.22965 1039.61 0.323483C1038.84 -0.0996047 1037.93 -0.158746 1037.32 0.455414L1037.19 0.578246C1036.53 1.2379 1036.53 2.30699 1037.2 2.9621L1047.72 13.33V13.3255Z"
            fill="#F8F5F1" />
        <path
            d="M1033.52 27.4056C1034.19 28.0698 1034.2 29.148 1033.52 29.8168L1033.42 29.9123C1032.8 30.531 1031.86 30.4946 1031.11 30.0261C1026.8 27.3419 1022.27 22.8245 1020.33 19.4261C1019.9 18.6709 1019.84 17.7747 1020.46 17.1605L1020.58 17.0377C1021.25 16.3781 1022.32 16.3781 1022.99 17.0377L1033.52 27.4056H1033.52Z"
            fill="#F8F5F1" />
        <path
            d="M1066.69 46.0352C1066.9 45.9305 1066.99 45.6894 1067.18 45.5438C1067.74 44.8114 1068.03 43.9152 1068 42.9917C1067.97 41.8634 1067.47 40.7989 1066.62 40.0437L1044.19 20.4634L1042.43 22.1512L1040.73 23.8936L1060.62 45.9942C1061.39 46.8268 1062.47 47.3135 1063.61 47.3408C1064.55 47.3636 1065.45 47.0724 1066.19 46.5265C1066.34 46.3354 1066.58 46.249 1066.69 46.0352Z"
            fill="#F8F5F1" />
        <path
            d="M1047.33 39.2197L1048.62 40.6573V42.1722H1049.82L1051.44 43.7691V47.9999H1020.84V43.7691L1022.45 42.1722H1023.66V40.6573L1024.95 39.2197H1047.33Z"
            fill="#F8F5F1" />
    </g>
    <g clip-path="url(#clip15_1254_14848)">
        <path d="M1118.78 15.0817L1107.65 4.12695L1096.17 15.5094L1107.29 26.4687L1118.78 15.0817Z"
            fill="#F8F5F1" />
        <path
            d="M1119.72 13.3255C1120.4 13.9897 1121.49 13.9897 1122.16 13.3255L1122.26 13.2299C1122.89 12.6112 1122.84 11.6832 1122.37 10.9462C1119.64 6.688 1115.05 2.22965 1111.61 0.323483C1110.84 -0.0996047 1109.93 -0.158746 1109.32 0.455414L1109.19 0.578246C1108.53 1.2379 1108.53 2.30699 1109.2 2.9621L1119.72 13.33V13.3255Z"
            fill="#F8F5F1" />
        <path
            d="M1105.52 27.4056C1106.19 28.0698 1106.2 29.148 1105.52 29.8168L1105.42 29.9123C1104.8 30.531 1103.86 30.4946 1103.11 30.0261C1098.8 27.3419 1094.27 22.8245 1092.33 19.4261C1091.9 18.6709 1091.84 17.7747 1092.46 17.1605L1092.58 17.0377C1093.25 16.3781 1094.32 16.3781 1094.99 17.0377L1105.52 27.4056H1105.52Z"
            fill="#F8F5F1" />
        <path
            d="M1138.69 46.0352C1138.9 45.9305 1138.99 45.6894 1139.18 45.5438C1139.74 44.8114 1140.03 43.9152 1140 42.9917C1139.97 41.8634 1139.47 40.7989 1138.62 40.0437L1116.19 20.4634L1114.43 22.1512L1112.73 23.8936L1132.62 45.9942C1133.39 46.8268 1134.47 47.3135 1135.61 47.3408C1136.55 47.3636 1137.45 47.0724 1138.19 46.5265C1138.34 46.3354 1138.58 46.249 1138.69 46.0352Z"
            fill="#F8F5F1" />
        <path
            d="M1119.33 39.2197L1120.62 40.6573V42.1722H1121.82L1123.44 43.7691V47.9999H1092.84V43.7691L1094.45 42.1722H1095.66V40.6573L1096.95 39.2197H1119.33Z"
            fill="#F8F5F1" />
    </g>
    <g clip-path="url(#clip16_1254_14848)">
        <path d="M1190.78 15.0817L1179.65 4.12695L1168.17 15.5094L1179.29 26.4687L1190.78 15.0817Z"
            fill="#F8F5F1" />
        <path
            d="M1191.72 13.3255C1192.4 13.9897 1193.49 13.9897 1194.16 13.3255L1194.26 13.2299C1194.89 12.6112 1194.84 11.6832 1194.37 10.9462C1191.64 6.688 1187.05 2.22965 1183.61 0.323483C1182.84 -0.0996047 1181.93 -0.158746 1181.32 0.455414L1181.19 0.578246C1180.53 1.2379 1180.53 2.30699 1181.2 2.9621L1191.72 13.33V13.3255Z"
            fill="#F8F5F1" />
        <path
            d="M1177.52 27.4056C1178.19 28.0698 1178.2 29.148 1177.52 29.8168L1177.42 29.9123C1176.8 30.531 1175.86 30.4946 1175.11 30.0261C1170.8 27.3419 1166.27 22.8245 1164.33 19.4261C1163.9 18.6709 1163.84 17.7747 1164.46 17.1605L1164.58 17.0377C1165.25 16.3781 1166.32 16.3781 1166.99 17.0377L1177.52 27.4056H1177.52Z"
            fill="#F8F5F1" />
        <path
            d="M1210.69 46.0352C1210.9 45.9305 1210.99 45.6894 1211.18 45.5438C1211.74 44.8114 1212.03 43.9152 1212 42.9917C1211.97 41.8634 1211.47 40.7989 1210.62 40.0437L1188.19 20.4634L1186.43 22.1512L1184.73 23.8936L1204.62 45.9942C1205.39 46.8268 1206.47 47.3135 1207.61 47.3408C1208.55 47.3636 1209.45 47.0724 1210.19 46.5265C1210.34 46.3354 1210.58 46.249 1210.69 46.0352Z"
            fill="#F8F5F1" />
        <path
            d="M1191.33 39.2197L1192.62 40.6573V42.1722H1193.82L1195.44 43.7691V47.9999H1164.84V43.7691L1166.45 42.1722H1167.66V40.6573L1168.95 39.2197H1191.33Z"
            fill="#F8F5F1" />
    </g>
    <g clip-path="url(#clip17_1254_14848)">
        <path d="M1262.78 15.0817L1251.65 4.12695L1240.17 15.5094L1251.29 26.4687L1262.78 15.0817Z"
            fill="#F8F5F1" />
        <path
            d="M1263.72 13.3255C1264.4 13.9897 1265.49 13.9897 1266.16 13.3255L1266.26 13.2299C1266.88 12.6112 1266.84 11.6832 1266.37 10.9462C1263.64 6.688 1259.05 2.22965 1255.61 0.323483C1254.84 -0.0996047 1253.93 -0.158746 1253.32 0.455414L1253.19 0.578246C1252.53 1.2379 1252.53 2.30699 1253.2 2.9621L1263.72 13.33V13.3255Z"
            fill="#F8F5F1" />
        <path
            d="M1249.52 27.4056C1250.19 28.0698 1250.19 29.148 1249.52 29.8168L1249.42 29.9123C1248.8 30.531 1247.86 30.4946 1247.11 30.0261C1242.8 27.3419 1238.27 22.8245 1236.33 19.4261C1235.9 18.6709 1235.84 17.7747 1236.46 17.1605L1236.58 17.0377C1237.25 16.3781 1238.32 16.3781 1238.99 17.0377L1249.52 27.4056H1249.52Z"
            fill="#F8F5F1" />
        <path
            d="M1282.69 46.0352C1282.9 45.9305 1282.99 45.6894 1283.18 45.5438C1283.74 44.8114 1284.02 43.9152 1284 42.9917C1283.97 41.8634 1283.47 40.7989 1282.62 40.0437L1260.19 20.4634L1258.43 22.1512L1256.73 23.8936L1276.62 45.9942C1277.39 46.8268 1278.47 47.3135 1279.61 47.3408C1280.55 47.3636 1281.45 47.0724 1282.19 46.5265C1282.34 46.3354 1282.58 46.249 1282.69 46.0352Z"
            fill="#F8F5F1" />
        <path
            d="M1263.33 39.2197L1264.62 40.6573V42.1722H1265.82L1267.44 43.7691V47.9999H1236.84V43.7691L1238.45 42.1722H1239.66V40.6573L1240.95 39.2197H1263.33Z"
            fill="#F8F5F1" />
    </g>
    <g clip-path="url(#clip18_1254_14848)">
        <path d="M1334.78 15.0817L1323.65 4.12695L1312.17 15.5094L1323.29 26.4687L1334.78 15.0817Z"
            fill="#F8F5F1" />
        <path
            d="M1335.72 13.3255C1336.4 13.9897 1337.49 13.9897 1338.16 13.3255L1338.26 13.2299C1338.88 12.6112 1338.84 11.6832 1338.37 10.9462C1335.64 6.688 1331.05 2.22965 1327.61 0.323483C1326.84 -0.0996047 1325.93 -0.158746 1325.32 0.455414L1325.19 0.578246C1324.53 1.2379 1324.53 2.30699 1325.2 2.9621L1335.72 13.33V13.3255Z"
            fill="#F8F5F1" />
        <path
            d="M1321.52 27.4056C1322.19 28.0698 1322.19 29.148 1321.52 29.8168L1321.42 29.9123C1320.8 30.531 1319.86 30.4946 1319.11 30.0261C1314.8 27.3419 1310.27 22.8245 1308.33 19.4261C1307.9 18.6709 1307.84 17.7747 1308.46 17.1605L1308.58 17.0377C1309.25 16.3781 1310.32 16.3781 1310.99 17.0377L1321.52 27.4056H1321.52Z"
            fill="#F8F5F1" />
        <path
            d="M1354.69 46.0352C1354.9 45.9305 1354.99 45.6894 1355.18 45.5438C1355.74 44.8114 1356.02 43.9152 1356 42.9917C1355.97 41.8634 1355.47 40.7989 1354.62 40.0437L1332.19 20.4634L1330.43 22.1512L1328.73 23.8936L1348.62 45.9942C1349.39 46.8268 1350.47 47.3135 1351.61 47.3408C1352.55 47.3636 1353.45 47.0724 1354.19 46.5265C1354.34 46.3354 1354.58 46.249 1354.69 46.0352Z"
            fill="#F8F5F1" />
        <path
            d="M1335.33 39.2197L1336.62 40.6573V42.1722H1337.82L1339.44 43.7691V47.9999H1308.84V43.7691L1310.45 42.1722H1311.66V40.6573L1312.95 39.2197H1335.33Z"
            fill="#F8F5F1" />
    </g>
    <g clip-path="url(#clip19_1254_14848)">
        <path d="M1406.78 15.0817L1395.65 4.12695L1384.17 15.5094L1395.29 26.4687L1406.78 15.0817Z"
            fill="#F8F5F1" />
        <path
            d="M1407.72 13.3255C1408.4 13.9897 1409.49 13.9897 1410.16 13.3255L1410.26 13.2299C1410.88 12.6112 1410.84 11.6832 1410.37 10.9462C1407.64 6.688 1403.05 2.22965 1399.61 0.323483C1398.84 -0.0996047 1397.93 -0.158746 1397.32 0.455414L1397.19 0.578246C1396.53 1.2379 1396.53 2.30699 1397.2 2.9621L1407.72 13.33V13.3255Z"
            fill="#F8F5F1" />
        <path
            d="M1393.52 27.4056C1394.19 28.0698 1394.19 29.148 1393.52 29.8168L1393.42 29.9123C1392.8 30.531 1391.86 30.4946 1391.11 30.0261C1386.8 27.3419 1382.27 22.8245 1380.33 19.4261C1379.9 18.6709 1379.84 17.7747 1380.46 17.1605L1380.58 17.0377C1381.25 16.3781 1382.32 16.3781 1382.99 17.0377L1393.52 27.4056H1393.52Z"
            fill="#F8F5F1" />
        <path
            d="M1426.69 46.0352C1426.9 45.9305 1426.99 45.6894 1427.18 45.5438C1427.74 44.8114 1428.02 43.9152 1428 42.9917C1427.97 41.8634 1427.47 40.7989 1426.62 40.0437L1404.19 20.4634L1402.43 22.1512L1400.73 23.8936L1420.62 45.9942C1421.39 46.8268 1422.47 47.3135 1423.61 47.3408C1424.55 47.3636 1425.45 47.0724 1426.19 46.5265C1426.34 46.3354 1426.58 46.249 1426.69 46.0352Z"
            fill="#F8F5F1" />
        <path
            d="M1407.33 39.2197L1408.62 40.6573V42.1722H1409.82L1411.44 43.7691V47.9999H1380.84V43.7691L1382.45 42.1722H1383.66V40.6573L1384.95 39.2197H1407.33Z"
            fill="#F8F5F1" />
    </g>
    <g clip-path="url(#clip20_1254_14848)">
        <path d="M1478.78 15.0817L1467.65 4.12695L1456.17 15.5094L1467.29 26.4687L1478.78 15.0817Z"
            fill="#F8F5F1" />
        <path
            d="M1479.72 13.3255C1480.4 13.9897 1481.49 13.9897 1482.16 13.3255L1482.26 13.2299C1482.88 12.6112 1482.84 11.6832 1482.37 10.9462C1479.64 6.688 1475.05 2.22965 1471.61 0.323483C1470.84 -0.0996047 1469.93 -0.158746 1469.32 0.455414L1469.19 0.578246C1468.53 1.2379 1468.53 2.30699 1469.2 2.9621L1479.72 13.33V13.3255Z"
            fill="#F8F5F1" />
        <path
            d="M1465.52 27.4056C1466.19 28.0698 1466.19 29.148 1465.52 29.8168L1465.42 29.9123C1464.8 30.531 1463.86 30.4946 1463.11 30.0261C1458.8 27.3419 1454.27 22.8245 1452.33 19.4261C1451.9 18.6709 1451.84 17.7747 1452.46 17.1605L1452.58 17.0377C1453.25 16.3781 1454.32 16.3781 1454.99 17.0377L1465.52 27.4056H1465.52Z"
            fill="#F8F5F1" />
        <path
            d="M1498.69 46.0352C1498.9 45.9305 1498.99 45.6894 1499.18 45.5438C1499.74 44.8114 1500.02 43.9152 1500 42.9917C1499.97 41.8634 1499.47 40.7989 1498.62 40.0437L1476.19 20.4634L1474.43 22.1512L1472.73 23.8936L1492.62 45.9942C1493.39 46.8268 1494.47 47.3135 1495.61 47.3408C1496.55 47.3636 1497.45 47.0724 1498.19 46.5265C1498.34 46.3354 1498.58 46.249 1498.69 46.0352Z"
            fill="#F8F5F1" />
        <path
            d="M1479.33 39.2197L1480.62 40.6573V42.1722H1481.82L1483.44 43.7691V47.9999H1452.84V43.7691L1454.45 42.1722H1455.66V40.6573L1456.95 39.2197H1479.33Z"
            fill="#F8F5F1" />
    </g>
    <g clip-path="url(#clip21_1254_14848)">
        <path d="M38.7815 87.0817L27.6548 76.127L16.1654 87.5094L27.2922 98.4687L38.7815 87.0817Z"
            fill="#F8F5F1" />
        <path
            d="M39.7225 85.3255C40.3973 85.9897 41.4897 85.9897 42.1645 85.3255L42.2609 85.2299C42.8852 84.6112 42.8439 83.6832 42.3711 82.9462C39.6399 78.688 35.0497 74.2297 31.607 72.3235C30.8404 71.9004 29.9315 71.8413 29.3165 72.4554L29.1925 72.5782C28.5269 73.2379 28.5315 74.307 29.1971 74.9621L39.7225 85.33V85.3255Z"
            fill="#F8F5F1" />
        <path
            d="M25.5158 99.4056C26.1906 100.07 26.1952 101.148 25.5204 101.817L25.424 101.912C24.7997 102.531 23.8633 102.495 23.1105 102.026C18.8003 99.3419 14.2743 94.8245 12.3327 91.4261C11.9012 90.6709 11.8369 89.7747 12.4566 89.1605L12.5805 89.0377C13.2461 88.3781 14.3248 88.3781 14.995 89.0377L25.5204 99.4056H25.5158Z"
            fill="#F8F5F1" />
        <path
            d="M58.6893 118.035C58.905 117.931 58.9922 117.689 59.185 117.544C59.7358 116.811 60.025 115.915 59.9975 114.992C59.9699 113.863 59.4742 112.799 58.625 112.044L36.1926 92.4634L34.4345 94.1512L32.7315 95.8936L52.621 117.994C53.3875 118.827 54.4708 119.314 55.6092 119.341C56.5456 119.364 57.4499 119.072 58.1935 118.526C58.3358 118.335 58.5791 118.249 58.6893 118.035Z"
            fill="#F8F5F1" />
        <path
            d="M39.3278 111.22L40.6176 112.657V114.172H41.8249L43.436 115.769V120H12.8422V115.769L14.4533 114.172H15.6606V112.657L16.9458 111.22H39.3278Z"
            fill="#F8F5F1" />
    </g>
    <g clip-path="url(#clip22_1254_14848)">
        <path d="M110.781 87.0817L99.6548 76.127L88.1654 87.5094L99.2922 98.4687L110.781 87.0817Z"
            fill="#F8F5F1" />
        <path
            d="M111.723 85.3255C112.397 85.9897 113.49 85.9897 114.165 85.3255L114.261 85.2299C114.885 84.6112 114.844 83.6832 114.371 82.9462C111.64 78.688 107.05 74.2297 103.607 72.3235C102.84 71.9004 101.932 71.8413 101.316 72.4554L101.193 72.5782C100.527 73.2379 100.532 74.307 101.197 74.9621L111.723 85.33V85.3255Z"
            fill="#F8F5F1" />
        <path
            d="M97.5158 99.4056C98.1906 100.07 98.1952 101.148 97.5204 101.817L97.424 101.912C96.7997 102.531 95.8633 102.495 95.1105 102.026C90.8003 99.3419 86.2743 94.8245 84.3327 91.4261C83.9012 90.6709 83.8369 89.7747 84.4566 89.1605L84.5805 89.0377C85.2461 88.3781 86.3248 88.3781 86.995 89.0377L97.5204 99.4056H97.5158Z"
            fill="#F8F5F1" />
        <path
            d="M130.689 118.035C130.905 117.931 130.992 117.689 131.185 117.544C131.736 116.811 132.025 115.915 131.997 114.992C131.97 113.863 131.474 112.799 130.625 112.044L108.193 92.4634L106.434 94.1512L104.732 95.8936L124.621 117.994C125.388 118.827 126.471 119.314 127.609 119.341C128.546 119.364 129.45 119.072 130.194 118.526C130.336 118.335 130.579 118.249 130.689 118.035Z"
            fill="#F8F5F1" />
        <path
            d="M111.328 111.22L112.618 112.657V114.172H113.825L115.436 115.769V120H84.8422V115.769L86.4533 114.172H87.6606V112.657L88.9458 111.22H111.328Z"
            fill="#F8F5F1" />
    </g>
    <g clip-path="url(#clip23_1254_14848)">
        <path d="M182.781 87.0817L171.655 76.127L160.165 87.5094L171.292 98.4687L182.781 87.0817Z"
            fill="#F8F5F1" />
        <path
            d="M183.723 85.3255C184.397 85.9897 185.49 85.9897 186.165 85.3255L186.261 85.2299C186.885 84.6112 186.844 83.6832 186.371 82.9462C183.64 78.688 179.05 74.2297 175.607 72.3235C174.84 71.9004 173.932 71.8413 173.316 72.4554L173.193 72.5782C172.527 73.2379 172.532 74.307 173.197 74.9621L183.723 85.33V85.3255Z"
            fill="#F8F5F1" />
        <path
            d="M169.516 99.4056C170.191 100.07 170.195 101.148 169.52 101.817L169.424 101.912C168.8 102.531 167.863 102.495 167.111 102.026C162.8 99.3419 158.274 94.8245 156.333 91.4261C155.901 90.6709 155.837 89.7747 156.457 89.1605L156.581 89.0377C157.246 88.3781 158.325 88.3781 158.995 89.0377L169.52 99.4056H169.516Z"
            fill="#F8F5F1" />
        <path
            d="M202.689 118.035C202.905 117.931 202.992 117.689 203.185 117.544C203.736 116.811 204.025 115.915 203.997 114.992C203.97 113.863 203.474 112.799 202.625 112.044L180.193 92.4634L178.434 94.1512L176.732 95.8936L196.621 117.994C197.388 118.827 198.471 119.314 199.609 119.341C200.546 119.364 201.45 119.072 202.194 118.526C202.336 118.335 202.579 118.249 202.689 118.035Z"
            fill="#F8F5F1" />
        <path
            d="M183.328 111.22L184.618 112.657V114.172H185.825L187.436 115.769V120H156.842V115.769L158.453 114.172H159.661V112.657L160.946 111.22H183.328Z"
            fill="#F8F5F1" />
    </g>
    <g clip-path="url(#clip24_1254_14848)">
        <path d="M254.781 87.0817L243.655 76.127L232.165 87.5094L243.292 98.4687L254.781 87.0817Z"
            fill="#F8F5F1" />
        <path
            d="M255.723 85.3255C256.397 85.9897 257.49 85.9897 258.165 85.3255L258.261 85.2299C258.885 84.6112 258.844 83.6832 258.371 82.9462C255.64 78.688 251.05 74.2297 247.607 72.3235C246.84 71.9004 245.932 71.8413 245.316 72.4554L245.193 72.5782C244.527 73.2379 244.532 74.307 245.197 74.9621L255.723 85.33V85.3255Z"
            fill="#F8F5F1" />
        <path
            d="M241.516 99.4056C242.191 100.07 242.195 101.148 241.52 101.817L241.424 101.912C240.8 102.531 239.863 102.495 239.111 102.026C234.8 99.3419 230.274 94.8245 228.333 91.4261C227.901 90.6709 227.837 89.7747 228.457 89.1605L228.581 89.0377C229.246 88.3781 230.325 88.3781 230.995 89.0377L241.52 99.4056H241.516Z"
            fill="#F8F5F1" />
        <path
            d="M274.689 118.035C274.905 117.931 274.992 117.689 275.185 117.544C275.736 116.811 276.025 115.915 275.997 114.992C275.97 113.863 275.474 112.799 274.625 112.044L252.193 92.4634L250.434 94.1512L248.732 95.8936L268.621 117.994C269.388 118.827 270.471 119.314 271.609 119.341C272.546 119.364 273.45 119.072 274.194 118.526C274.336 118.335 274.579 118.249 274.689 118.035Z"
            fill="#F8F5F1" />
        <path
            d="M255.328 111.22L256.618 112.657V114.172H257.825L259.436 115.769V120H228.842V115.769L230.453 114.172H231.661V112.657L232.946 111.22H255.328Z"
            fill="#F8F5F1" />
    </g>
    <g clip-path="url(#clip25_1254_14848)">
        <path d="M326.781 87.0817L315.655 76.127L304.165 87.5094L315.292 98.4687L326.781 87.0817Z"
            fill="#F8F5F1" />
        <path
            d="M327.723 85.3255C328.397 85.9897 329.49 85.9897 330.165 85.3255L330.261 85.2299C330.885 84.6112 330.844 83.6832 330.371 82.9462C327.64 78.688 323.05 74.2297 319.607 72.3235C318.84 71.9004 317.932 71.8413 317.316 72.4554L317.193 72.5782C316.527 73.2379 316.532 74.307 317.197 74.9621L327.723 85.33V85.3255Z"
            fill="#F8F5F1" />
        <path
            d="M313.516 99.4056C314.191 100.07 314.195 101.148 313.52 101.817L313.424 101.912C312.8 102.531 311.863 102.495 311.111 102.026C306.8 99.3419 302.274 94.8245 300.333 91.4261C299.901 90.6709 299.837 89.7747 300.457 89.1605L300.581 89.0377C301.246 88.3781 302.325 88.3781 302.995 89.0377L313.52 99.4056H313.516Z"
            fill="#F8F5F1" />
        <path
            d="M346.689 118.035C346.905 117.931 346.992 117.689 347.185 117.544C347.736 116.811 348.025 115.915 347.997 114.992C347.97 113.863 347.474 112.799 346.625 112.044L324.193 92.4634L322.434 94.1512L320.732 95.8936L340.621 117.994C341.388 118.827 342.471 119.314 343.609 119.341C344.546 119.364 345.45 119.072 346.194 118.526C346.336 118.335 346.579 118.249 346.689 118.035Z"
            fill="#F8F5F1" />
        <path
            d="M327.328 111.22L328.618 112.657V114.172H329.825L331.436 115.769V120H300.842V115.769L302.453 114.172H303.661V112.657L304.946 111.22H327.328Z"
            fill="#F8F5F1" />
    </g>
    <g clip-path="url(#clip26_1254_14848)">
        <path d="M398.781 87.0817L387.655 76.127L376.165 87.5094L387.292 98.4687L398.781 87.0817Z"
            fill="#F8F5F1" />
        <path
            d="M399.723 85.3255C400.397 85.9897 401.49 85.9897 402.165 85.3255L402.261 85.2299C402.885 84.6112 402.844 83.6832 402.371 82.9462C399.64 78.688 395.05 74.2297 391.607 72.3235C390.84 71.9004 389.932 71.8413 389.316 72.4554L389.193 72.5782C388.527 73.2379 388.532 74.307 389.197 74.9621L399.723 85.33V85.3255Z"
            fill="#F8F5F1" />
        <path
            d="M385.516 99.4056C386.191 100.07 386.195 101.148 385.52 101.817L385.424 101.912C384.8 102.531 383.863 102.495 383.111 102.026C378.8 99.3419 374.274 94.8245 372.333 91.4261C371.901 90.6709 371.837 89.7747 372.457 89.1605L372.581 89.0377C373.246 88.3781 374.325 88.3781 374.995 89.0377L385.52 99.4056H385.516Z"
            fill="#F8F5F1" />
        <path
            d="M418.689 118.035C418.905 117.931 418.992 117.689 419.185 117.544C419.736 116.811 420.025 115.915 419.997 114.992C419.97 113.863 419.474 112.799 418.625 112.044L396.193 92.4634L394.434 94.1512L392.732 95.8936L412.621 117.994C413.388 118.827 414.471 119.314 415.609 119.341C416.546 119.364 417.45 119.072 418.194 118.526C418.336 118.335 418.579 118.249 418.689 118.035Z"
            fill="#F8F5F1" />
        <path
            d="M399.328 111.22L400.618 112.657V114.172H401.825L403.436 115.769V120H372.842V115.769L374.453 114.172H375.661V112.657L376.946 111.22H399.328Z"
            fill="#F8F5F1" />
    </g>
    <g clip-path="url(#clip27_1254_14848)">
        <path d="M470.781 87.0817L459.655 76.127L448.165 87.5094L459.292 98.4687L470.781 87.0817Z"
            fill="#F8F5F1" />
        <path
            d="M471.723 85.3255C472.397 85.9897 473.49 85.9897 474.165 85.3255L474.261 85.2299C474.885 84.6112 474.844 83.6832 474.371 82.9462C471.64 78.688 467.05 74.2297 463.607 72.3235C462.84 71.9004 461.932 71.8413 461.316 72.4554L461.193 72.5782C460.527 73.2379 460.532 74.307 461.197 74.9621L471.723 85.33V85.3255Z"
            fill="#F8F5F1" />
        <path
            d="M457.516 99.4056C458.191 100.07 458.195 101.148 457.52 101.817L457.424 101.912C456.8 102.531 455.863 102.495 455.111 102.026C450.8 99.3419 446.274 94.8245 444.333 91.4261C443.901 90.6709 443.837 89.7747 444.457 89.1605L444.581 89.0377C445.246 88.3781 446.325 88.3781 446.995 89.0377L457.52 99.4056H457.516Z"
            fill="#F8F5F1" />
        <path
            d="M490.689 118.035C490.905 117.931 490.992 117.689 491.185 117.544C491.736 116.811 492.025 115.915 491.997 114.992C491.97 113.863 491.474 112.799 490.625 112.044L468.193 92.4634L466.434 94.1512L464.732 95.8936L484.621 117.994C485.388 118.827 486.471 119.314 487.609 119.341C488.546 119.364 489.45 119.072 490.194 118.526C490.336 118.335 490.579 118.249 490.689 118.035Z"
            fill="#F8F5F1" />
        <path
            d="M471.328 111.22L472.618 112.657V114.172H473.825L475.436 115.769V120H444.842V115.769L446.453 114.172H447.661V112.657L448.946 111.22H471.328Z"
            fill="#F8F5F1" />
    </g>
    <g clip-path="url(#clip28_1254_14848)">
        <path d="M542.781 87.0817L531.655 76.127L520.165 87.5094L531.292 98.4687L542.781 87.0817Z"
            fill="#F8F5F1" />
        <path
            d="M543.723 85.3255C544.397 85.9897 545.49 85.9897 546.165 85.3255L546.261 85.2299C546.885 84.6112 546.844 83.6832 546.371 82.9462C543.64 78.688 539.05 74.2297 535.607 72.3235C534.84 71.9004 533.932 71.8413 533.316 72.4554L533.193 72.5782C532.527 73.2379 532.532 74.307 533.197 74.9621L543.723 85.33V85.3255Z"
            fill="#F8F5F1" />
        <path
            d="M529.516 99.4056C530.191 100.07 530.195 101.148 529.52 101.817L529.424 101.912C528.8 102.531 527.863 102.495 527.111 102.026C522.8 99.3419 518.274 94.8245 516.333 91.4261C515.901 90.6709 515.837 89.7747 516.457 89.1605L516.581 89.0377C517.246 88.3781 518.325 88.3781 518.995 89.0377L529.52 99.4056H529.516Z"
            fill="#F8F5F1" />
        <path
            d="M562.689 118.035C562.905 117.931 562.992 117.689 563.185 117.544C563.736 116.811 564.025 115.915 563.997 114.992C563.97 113.863 563.474 112.799 562.625 112.044L540.193 92.4634L538.434 94.1512L536.732 95.8936L556.621 117.994C557.388 118.827 558.471 119.314 559.609 119.341C560.546 119.364 561.45 119.072 562.194 118.526C562.336 118.335 562.579 118.249 562.689 118.035Z"
            fill="#F8F5F1" />
        <path
            d="M543.328 111.22L544.618 112.657V114.172H545.825L547.436 115.769V120H516.842V115.769L518.453 114.172H519.661V112.657L520.946 111.22H543.328Z"
            fill="#F8F5F1" />
    </g>
    <g clip-path="url(#clip29_1254_14848)">
        <path d="M614.781 87.0817L603.655 76.127L592.165 87.5094L603.292 98.4687L614.781 87.0817Z"
            fill="#F8F5F1" />
        <path
            d="M615.723 85.3255C616.397 85.9897 617.49 85.9897 618.165 85.3255L618.261 85.2299C618.885 84.6112 618.844 83.6832 618.371 82.9462C615.64 78.688 611.05 74.2297 607.607 72.3235C606.84 71.9004 605.932 71.8413 605.316 72.4554L605.193 72.5782C604.527 73.2379 604.532 74.307 605.197 74.9621L615.723 85.33V85.3255Z"
            fill="#F8F5F1" />
        <path
            d="M601.516 99.4056C602.191 100.07 602.195 101.148 601.52 101.817L601.424 101.912C600.8 102.531 599.863 102.495 599.111 102.026C594.8 99.3419 590.274 94.8245 588.333 91.4261C587.901 90.6709 587.837 89.7747 588.457 89.1605L588.581 89.0377C589.246 88.3781 590.325 88.3781 590.995 89.0377L601.52 99.4056H601.516Z"
            fill="#F8F5F1" />
        <path
            d="M634.689 118.035C634.905 117.931 634.992 117.689 635.185 117.544C635.736 116.811 636.025 115.915 635.997 114.992C635.97 113.863 635.474 112.799 634.625 112.044L612.193 92.4634L610.434 94.1512L608.732 95.8936L628.621 117.994C629.388 118.827 630.471 119.314 631.609 119.341C632.546 119.364 633.45 119.072 634.194 118.526C634.336 118.335 634.579 118.249 634.689 118.035Z"
            fill="#F8F5F1" />
        <path
            d="M615.328 111.22L616.618 112.657V114.172H617.825L619.436 115.769V120H588.842V115.769L590.453 114.172H591.661V112.657L592.946 111.22H615.328Z"
            fill="#F8F5F1" />
    </g>
    <g clip-path="url(#clip30_1254_14848)">
        <path d="M686.781 87.0817L675.655 76.127L664.165 87.5094L675.292 98.4687L686.781 87.0817Z"
            fill="#F8F5F1" />
        <path
            d="M687.723 85.3255C688.397 85.9897 689.49 85.9897 690.165 85.3255L690.261 85.2299C690.885 84.6112 690.844 83.6832 690.371 82.9462C687.64 78.688 683.05 74.2297 679.607 72.3235C678.84 71.9004 677.932 71.8413 677.316 72.4554L677.193 72.5782C676.527 73.2379 676.532 74.307 677.197 74.9621L687.723 85.33V85.3255Z"
            fill="#F8F5F1" />
        <path
            d="M673.516 99.4056C674.191 100.07 674.195 101.148 673.52 101.817L673.424 101.912C672.8 102.531 671.863 102.495 671.111 102.026C666.8 99.3419 662.274 94.8245 660.333 91.4261C659.901 90.6709 659.837 89.7747 660.457 89.1605L660.581 89.0377C661.246 88.3781 662.325 88.3781 662.995 89.0377L673.52 99.4056H673.516Z"
            fill="#F8F5F1" />
        <path
            d="M706.689 118.035C706.905 117.931 706.992 117.689 707.185 117.544C707.736 116.811 708.025 115.915 707.997 114.992C707.97 113.863 707.474 112.799 706.625 112.044L684.193 92.4634L682.434 94.1512L680.732 95.8936L700.621 117.994C701.388 118.827 702.471 119.314 703.609 119.341C704.546 119.364 705.45 119.072 706.194 118.526C706.336 118.335 706.579 118.249 706.689 118.035Z"
            fill="#F8F5F1" />
        <path
            d="M687.328 111.22L688.618 112.657V114.172H689.825L691.436 115.769V120H660.842V115.769L662.453 114.172H663.661V112.657L664.946 111.22H687.328Z"
            fill="#F8F5F1" />
    </g>
    <g clip-path="url(#clip31_1254_14848)">
        <path d="M758.781 87.0817L747.655 76.127L736.165 87.5094L747.292 98.4687L758.781 87.0817Z"
            fill="#F8F5F1" />
        <path
            d="M759.723 85.3255C760.397 85.9897 761.49 85.9897 762.165 85.3255L762.261 85.2299C762.885 84.6112 762.844 83.6832 762.371 82.9462C759.64 78.688 755.05 74.2297 751.607 72.3235C750.84 71.9004 749.932 71.8413 749.316 72.4554L749.193 72.5782C748.527 73.2379 748.532 74.307 749.197 74.9621L759.723 85.33V85.3255Z"
            fill="#F8F5F1" />
        <path
            d="M745.516 99.4056C746.191 100.07 746.195 101.148 745.52 101.817L745.424 101.912C744.8 102.531 743.863 102.495 743.111 102.026C738.8 99.3419 734.274 94.8245 732.333 91.4261C731.901 90.6709 731.837 89.7747 732.457 89.1605L732.581 89.0377C733.246 88.3781 734.325 88.3781 734.995 89.0377L745.52 99.4056H745.516Z"
            fill="#F8F5F1" />
        <path
            d="M778.689 118.035C778.905 117.931 778.992 117.689 779.185 117.544C779.736 116.811 780.025 115.915 779.997 114.992C779.97 113.863 779.474 112.799 778.625 112.044L756.193 92.4634L754.434 94.1512L752.732 95.8936L772.621 117.994C773.388 118.827 774.471 119.314 775.609 119.341C776.546 119.364 777.45 119.072 778.194 118.526C778.336 118.335 778.579 118.249 778.689 118.035Z"
            fill="#F8F5F1" />
        <path
            d="M759.328 111.22L760.618 112.657V114.172H761.825L763.436 115.769V120H732.842V115.769L734.453 114.172H735.661V112.657L736.946 111.22H759.328Z"
            fill="#F8F5F1" />
    </g>
    <g clip-path="url(#clip32_1254_14848)">
        <path d="M830.781 87.0817L819.655 76.127L808.165 87.5094L819.292 98.4687L830.781 87.0817Z"
            fill="#F8F5F1" />
        <path
            d="M831.723 85.3255C832.397 85.9897 833.49 85.9897 834.165 85.3255L834.261 85.2299C834.885 84.6112 834.844 83.6832 834.371 82.9462C831.64 78.688 827.05 74.2297 823.607 72.3235C822.84 71.9004 821.932 71.8413 821.316 72.4554L821.193 72.5782C820.527 73.2379 820.532 74.307 821.197 74.9621L831.723 85.33V85.3255Z"
            fill="#F8F5F1" />
        <path
            d="M817.516 99.4056C818.191 100.07 818.195 101.148 817.52 101.817L817.424 101.912C816.8 102.531 815.863 102.495 815.111 102.026C810.8 99.3419 806.274 94.8245 804.333 91.4261C803.901 90.6709 803.837 89.7747 804.457 89.1605L804.581 89.0377C805.246 88.3781 806.325 88.3781 806.995 89.0377L817.52 99.4056H817.516Z"
            fill="#F8F5F1" />
        <path
            d="M850.689 118.035C850.905 117.931 850.992 117.689 851.185 117.544C851.736 116.811 852.025 115.915 851.997 114.992C851.97 113.863 851.474 112.799 850.625 112.044L828.193 92.4634L826.434 94.1512L824.732 95.8936L844.621 117.994C845.388 118.827 846.471 119.314 847.609 119.341C848.546 119.364 849.45 119.072 850.194 118.526C850.336 118.335 850.579 118.249 850.689 118.035Z"
            fill="#F8F5F1" />
        <path
            d="M831.328 111.22L832.618 112.657V114.172H833.825L835.436 115.769V120H804.842V115.769L806.453 114.172H807.661V112.657L808.946 111.22H831.328Z"
            fill="#F8F5F1" />
    </g>
    <g clip-path="url(#clip33_1254_14848)">
        <path d="M902.781 87.0817L891.655 76.127L880.165 87.5094L891.292 98.4687L902.781 87.0817Z"
            fill="#F8F5F1" />
        <path
            d="M903.723 85.3255C904.397 85.9897 905.49 85.9897 906.165 85.3255L906.261 85.2299C906.885 84.6112 906.844 83.6832 906.371 82.9462C903.64 78.688 899.05 74.2297 895.607 72.3235C894.84 71.9004 893.932 71.8413 893.316 72.4554L893.193 72.5782C892.527 73.2379 892.532 74.307 893.197 74.9621L903.723 85.33V85.3255Z"
            fill="#F8F5F1" />
        <path
            d="M889.516 99.4056C890.191 100.07 890.195 101.148 889.52 101.817L889.424 101.912C888.8 102.531 887.863 102.495 887.111 102.026C882.8 99.3419 878.274 94.8245 876.333 91.4261C875.901 90.6709 875.837 89.7747 876.457 89.1605L876.581 89.0377C877.246 88.3781 878.325 88.3781 878.995 89.0377L889.52 99.4056H889.516Z"
            fill="#F8F5F1" />
        <path
            d="M922.689 118.035C922.905 117.931 922.992 117.689 923.185 117.544C923.736 116.811 924.025 115.915 923.997 114.992C923.97 113.863 923.474 112.799 922.625 112.044L900.193 92.4634L898.434 94.1512L896.732 95.8936L916.621 117.994C917.388 118.827 918.471 119.314 919.609 119.341C920.546 119.364 921.45 119.072 922.194 118.526C922.336 118.335 922.579 118.249 922.689 118.035Z"
            fill="#F8F5F1" />
        <path
            d="M903.328 111.22L904.618 112.657V114.172H905.825L907.436 115.769V120H876.842V115.769L878.453 114.172H879.661V112.657L880.946 111.22H903.328Z"
            fill="#F8F5F1" />
    </g>
    <g clip-path="url(#clip34_1254_14848)">
        <path d="M974.781 87.0817L963.655 76.127L952.165 87.5094L963.292 98.4687L974.781 87.0817Z"
            fill="#F8F5F1" />
        <path
            d="M975.723 85.3255C976.397 85.9897 977.49 85.9897 978.165 85.3255L978.261 85.2299C978.885 84.6112 978.844 83.6832 978.371 82.9462C975.64 78.688 971.05 74.2297 967.607 72.3235C966.84 71.9004 965.932 71.8413 965.316 72.4554L965.193 72.5782C964.527 73.2379 964.532 74.307 965.197 74.9621L975.723 85.33V85.3255Z"
            fill="#F8F5F1" />
        <path
            d="M961.516 99.4056C962.191 100.07 962.195 101.148 961.52 101.817L961.424 101.912C960.8 102.531 959.863 102.495 959.111 102.026C954.8 99.3419 950.274 94.8245 948.333 91.4261C947.901 90.6709 947.837 89.7747 948.457 89.1605L948.581 89.0377C949.246 88.3781 950.325 88.3781 950.995 89.0377L961.52 99.4056H961.516Z"
            fill="#F8F5F1" />
        <path
            d="M994.689 118.035C994.905 117.931 994.992 117.689 995.185 117.544C995.736 116.811 996.025 115.915 995.997 114.992C995.97 113.863 995.474 112.799 994.625 112.044L972.193 92.4634L970.434 94.1512L968.732 95.8936L988.621 117.994C989.388 118.827 990.471 119.314 991.609 119.341C992.546 119.364 993.45 119.072 994.194 118.526C994.336 118.335 994.579 118.249 994.689 118.035Z"
            fill="#F8F5F1" />
        <path
            d="M975.328 111.22L976.618 112.657V114.172H977.825L979.436 115.769V120H948.842V115.769L950.453 114.172H951.661V112.657L952.946 111.22H975.328Z"
            fill="#F8F5F1" />
    </g>
    <g clip-path="url(#clip35_1254_14848)">
        <path d="M1046.78 87.0817L1035.65 76.127L1024.17 87.5094L1035.29 98.4687L1046.78 87.0817Z"
            fill="#F8F5F1" />
        <path
            d="M1047.72 85.3255C1048.4 85.9897 1049.49 85.9897 1050.16 85.3255L1050.26 85.2299C1050.89 84.6112 1050.84 83.6832 1050.37 82.9462C1047.64 78.688 1043.05 74.2297 1039.61 72.3235C1038.84 71.9004 1037.93 71.8413 1037.32 72.4554L1037.19 72.5782C1036.53 73.2379 1036.53 74.307 1037.2 74.9621L1047.72 85.33V85.3255Z"
            fill="#F8F5F1" />
        <path
            d="M1033.52 99.4056C1034.19 100.07 1034.2 101.148 1033.52 101.817L1033.42 101.912C1032.8 102.531 1031.86 102.495 1031.11 102.026C1026.8 99.3419 1022.27 94.8245 1020.33 91.4261C1019.9 90.6709 1019.84 89.7747 1020.46 89.1605L1020.58 89.0377C1021.25 88.3781 1022.32 88.3781 1022.99 89.0377L1033.52 99.4056H1033.52Z"
            fill="#F8F5F1" />
        <path
            d="M1066.69 118.035C1066.9 117.931 1066.99 117.689 1067.18 117.544C1067.74 116.811 1068.03 115.915 1068 114.992C1067.97 113.863 1067.47 112.799 1066.62 112.044L1044.19 92.4634L1042.43 94.1512L1040.73 95.8936L1060.62 117.994C1061.39 118.827 1062.47 119.314 1063.61 119.341C1064.55 119.364 1065.45 119.072 1066.19 118.526C1066.34 118.335 1066.58 118.249 1066.69 118.035Z"
            fill="#F8F5F1" />
        <path
            d="M1047.33 111.22L1048.62 112.657V114.172H1049.82L1051.44 115.769V120H1020.84V115.769L1022.45 114.172H1023.66V112.657L1024.95 111.22H1047.33Z"
            fill="#F8F5F1" />
    </g>
    <g clip-path="url(#clip36_1254_14848)">
        <path d="M1118.78 87.0817L1107.65 76.127L1096.17 87.5094L1107.29 98.4687L1118.78 87.0817Z"
            fill="#F8F5F1" />
        <path
            d="M1119.72 85.3255C1120.4 85.9897 1121.49 85.9897 1122.16 85.3255L1122.26 85.2299C1122.89 84.6112 1122.84 83.6832 1122.37 82.9462C1119.64 78.688 1115.05 74.2297 1111.61 72.3235C1110.84 71.9004 1109.93 71.8413 1109.32 72.4554L1109.19 72.5782C1108.53 73.2379 1108.53 74.307 1109.2 74.9621L1119.72 85.33V85.3255Z"
            fill="#F8F5F1" />
        <path
            d="M1105.52 99.4056C1106.19 100.07 1106.2 101.148 1105.52 101.817L1105.42 101.912C1104.8 102.531 1103.86 102.495 1103.11 102.026C1098.8 99.3419 1094.27 94.8245 1092.33 91.4261C1091.9 90.6709 1091.84 89.7747 1092.46 89.1605L1092.58 89.0377C1093.25 88.3781 1094.32 88.3781 1094.99 89.0377L1105.52 99.4056H1105.52Z"
            fill="#F8F5F1" />
        <path
            d="M1138.69 118.035C1138.9 117.931 1138.99 117.689 1139.18 117.544C1139.74 116.811 1140.03 115.915 1140 114.992C1139.97 113.863 1139.47 112.799 1138.62 112.044L1116.19 92.4634L1114.43 94.1512L1112.73 95.8936L1132.62 117.994C1133.39 118.827 1134.47 119.314 1135.61 119.341C1136.55 119.364 1137.45 119.072 1138.19 118.526C1138.34 118.335 1138.58 118.249 1138.69 118.035Z"
            fill="#F8F5F1" />
        <path
            d="M1119.33 111.22L1120.62 112.657V114.172H1121.82L1123.44 115.769V120H1092.84V115.769L1094.45 114.172H1095.66V112.657L1096.95 111.22H1119.33Z"
            fill="#F8F5F1" />
    </g>
    <g clip-path="url(#clip37_1254_14848)">
        <path d="M1190.78 87.0817L1179.65 76.127L1168.17 87.5094L1179.29 98.4687L1190.78 87.0817Z"
            fill="#F8F5F1" />
        <path
            d="M1191.72 85.3255C1192.4 85.9897 1193.49 85.9897 1194.16 85.3255L1194.26 85.2299C1194.89 84.6112 1194.84 83.6832 1194.37 82.9462C1191.64 78.688 1187.05 74.2297 1183.61 72.3235C1182.84 71.9004 1181.93 71.8413 1181.32 72.4554L1181.19 72.5782C1180.53 73.2379 1180.53 74.307 1181.2 74.9621L1191.72 85.33V85.3255Z"
            fill="#F8F5F1" />
        <path
            d="M1177.52 99.4056C1178.19 100.07 1178.2 101.148 1177.52 101.817L1177.42 101.912C1176.8 102.531 1175.86 102.495 1175.11 102.026C1170.8 99.3419 1166.27 94.8245 1164.33 91.4261C1163.9 90.6709 1163.84 89.7747 1164.46 89.1605L1164.58 89.0377C1165.25 88.3781 1166.32 88.3781 1166.99 89.0377L1177.52 99.4056H1177.52Z"
            fill="#F8F5F1" />
        <path
            d="M1210.69 118.035C1210.9 117.931 1210.99 117.689 1211.18 117.544C1211.74 116.811 1212.03 115.915 1212 114.992C1211.97 113.863 1211.47 112.799 1210.62 112.044L1188.19 92.4634L1186.43 94.1512L1184.73 95.8936L1204.62 117.994C1205.39 118.827 1206.47 119.314 1207.61 119.341C1208.55 119.364 1209.45 119.072 1210.19 118.526C1210.34 118.335 1210.58 118.249 1210.69 118.035Z"
            fill="#F8F5F1" />
        <path
            d="M1191.33 111.22L1192.62 112.657V114.172H1193.82L1195.44 115.769V120H1164.84V115.769L1166.45 114.172H1167.66V112.657L1168.95 111.22H1191.33Z"
            fill="#F8F5F1" />
    </g>
    <g clip-path="url(#clip38_1254_14848)">
        <path d="M1262.78 87.0817L1251.65 76.127L1240.17 87.5094L1251.29 98.4687L1262.78 87.0817Z"
            fill="#F8F5F1" />
        <path
            d="M1263.72 85.3255C1264.4 85.9897 1265.49 85.9897 1266.16 85.3255L1266.26 85.2299C1266.88 84.6112 1266.84 83.6832 1266.37 82.9462C1263.64 78.688 1259.05 74.2297 1255.61 72.3235C1254.84 71.9004 1253.93 71.8413 1253.32 72.4554L1253.19 72.5782C1252.53 73.2379 1252.53 74.307 1253.2 74.9621L1263.72 85.33V85.3255Z"
            fill="#F8F5F1" />
        <path
            d="M1249.52 99.4056C1250.19 100.07 1250.19 101.148 1249.52 101.817L1249.42 101.912C1248.8 102.531 1247.86 102.495 1247.11 102.026C1242.8 99.3419 1238.27 94.8245 1236.33 91.4261C1235.9 90.6709 1235.84 89.7747 1236.46 89.1605L1236.58 89.0377C1237.25 88.3781 1238.32 88.3781 1238.99 89.0377L1249.52 99.4056H1249.52Z"
            fill="#F8F5F1" />
        <path
            d="M1282.69 118.035C1282.9 117.931 1282.99 117.689 1283.18 117.544C1283.74 116.811 1284.02 115.915 1284 114.992C1283.97 113.863 1283.47 112.799 1282.62 112.044L1260.19 92.4634L1258.43 94.1512L1256.73 95.8936L1276.62 117.994C1277.39 118.827 1278.47 119.314 1279.61 119.341C1280.55 119.364 1281.45 119.072 1282.19 118.526C1282.34 118.335 1282.58 118.249 1282.69 118.035Z"
            fill="#F8F5F1" />
        <path
            d="M1263.33 111.22L1264.62 112.657V114.172H1265.82L1267.44 115.769V120H1236.84V115.769L1238.45 114.172H1239.66V112.657L1240.95 111.22H1263.33Z"
            fill="#F8F5F1" />
    </g>
    <g clip-path="url(#clip39_1254_14848)">
        <path d="M1334.78 87.0817L1323.65 76.127L1312.17 87.5094L1323.29 98.4687L1334.78 87.0817Z"
            fill="#F8F5F1" />
        <path
            d="M1335.72 85.3255C1336.4 85.9897 1337.49 85.9897 1338.16 85.3255L1338.26 85.2299C1338.88 84.6112 1338.84 83.6832 1338.37 82.9462C1335.64 78.688 1331.05 74.2297 1327.61 72.3235C1326.84 71.9004 1325.93 71.8413 1325.32 72.4554L1325.19 72.5782C1324.53 73.2379 1324.53 74.307 1325.2 74.9621L1335.72 85.33V85.3255Z"
            fill="#F8F5F1" />
        <path
            d="M1321.52 99.4056C1322.19 100.07 1322.19 101.148 1321.52 101.817L1321.42 101.912C1320.8 102.531 1319.86 102.495 1319.11 102.026C1314.8 99.3419 1310.27 94.8245 1308.33 91.4261C1307.9 90.6709 1307.84 89.7747 1308.46 89.1605L1308.58 89.0377C1309.25 88.3781 1310.32 88.3781 1310.99 89.0377L1321.52 99.4056H1321.52Z"
            fill="#F8F5F1" />
        <path
            d="M1354.69 118.035C1354.9 117.931 1354.99 117.689 1355.18 117.544C1355.74 116.811 1356.02 115.915 1356 114.992C1355.97 113.863 1355.47 112.799 1354.62 112.044L1332.19 92.4634L1330.43 94.1512L1328.73 95.8936L1348.62 117.994C1349.39 118.827 1350.47 119.314 1351.61 119.341C1352.55 119.364 1353.45 119.072 1354.19 118.526C1354.34 118.335 1354.58 118.249 1354.69 118.035Z"
            fill="#F8F5F1" />
        <path
            d="M1335.33 111.22L1336.62 112.657V114.172H1337.82L1339.44 115.769V120H1308.84V115.769L1310.45 114.172H1311.66V112.657L1312.95 111.22H1335.33Z"
            fill="#F8F5F1" />
    </g>
    <g clip-path="url(#clip40_1254_14848)">
        <path d="M1406.78 87.0817L1395.65 76.127L1384.17 87.5094L1395.29 98.4687L1406.78 87.0817Z"
            fill="#F8F5F1" />
        <path
            d="M1407.72 85.3255C1408.4 85.9897 1409.49 85.9897 1410.16 85.3255L1410.26 85.2299C1410.88 84.6112 1410.84 83.6832 1410.37 82.9462C1407.64 78.688 1403.05 74.2297 1399.61 72.3235C1398.84 71.9004 1397.93 71.8413 1397.32 72.4554L1397.19 72.5782C1396.53 73.2379 1396.53 74.307 1397.2 74.9621L1407.72 85.33V85.3255Z"
            fill="#F8F5F1" />
        <path
            d="M1393.52 99.4056C1394.19 100.07 1394.19 101.148 1393.52 101.817L1393.42 101.912C1392.8 102.531 1391.86 102.495 1391.11 102.026C1386.8 99.3419 1382.27 94.8245 1380.33 91.4261C1379.9 90.6709 1379.84 89.7747 1380.46 89.1605L1380.58 89.0377C1381.25 88.3781 1382.32 88.3781 1382.99 89.0377L1393.52 99.4056H1393.52Z"
            fill="#F8F5F1" />
        <path
            d="M1426.69 118.035C1426.9 117.931 1426.99 117.689 1427.18 117.544C1427.74 116.811 1428.02 115.915 1428 114.992C1427.97 113.863 1427.47 112.799 1426.62 112.044L1404.19 92.4634L1402.43 94.1512L1400.73 95.8936L1420.62 117.994C1421.39 118.827 1422.47 119.314 1423.61 119.341C1424.55 119.364 1425.45 119.072 1426.19 118.526C1426.34 118.335 1426.58 118.249 1426.69 118.035Z"
            fill="#F8F5F1" />
        <path
            d="M1407.33 111.22L1408.62 112.657V114.172H1409.82L1411.44 115.769V120H1380.84V115.769L1382.45 114.172H1383.66V112.657L1384.95 111.22H1407.33Z"
            fill="#F8F5F1" />
    </g>
    <g clip-path="url(#clip41_1254_14848)">
        <path d="M1478.78 87.0817L1467.65 76.127L1456.17 87.5094L1467.29 98.4687L1478.78 87.0817Z"
            fill="#F8F5F1" />
        <path
            d="M1479.72 85.3255C1480.4 85.9897 1481.49 85.9897 1482.16 85.3255L1482.26 85.2299C1482.88 84.6112 1482.84 83.6832 1482.37 82.9462C1479.64 78.688 1475.05 74.2297 1471.61 72.3235C1470.84 71.9004 1469.93 71.8413 1469.32 72.4554L1469.19 72.5782C1468.53 73.2379 1468.53 74.307 1469.2 74.9621L1479.72 85.33V85.3255Z"
            fill="#F8F5F1" />
        <path
            d="M1465.52 99.4056C1466.19 100.07 1466.19 101.148 1465.52 101.817L1465.42 101.912C1464.8 102.531 1463.86 102.495 1463.11 102.026C1458.8 99.3419 1454.27 94.8245 1452.33 91.4261C1451.9 90.6709 1451.84 89.7747 1452.46 89.1605L1452.58 89.0377C1453.25 88.3781 1454.32 88.3781 1454.99 89.0377L1465.52 99.4056H1465.52Z"
            fill="#F8F5F1" />
        <path
            d="M1498.69 118.035C1498.9 117.931 1498.99 117.689 1499.18 117.544C1499.74 116.811 1500.02 115.915 1500 114.992C1499.97 113.863 1499.47 112.799 1498.62 112.044L1476.19 92.4634L1474.43 94.1512L1472.73 95.8936L1492.62 117.994C1493.39 118.827 1494.47 119.314 1495.61 119.341C1496.55 119.364 1497.45 119.072 1498.19 118.526C1498.34 118.335 1498.58 118.249 1498.69 118.035Z"
            fill="#F8F5F1" />
        <path
            d="M1479.33 111.22L1480.62 112.657V114.172H1481.82L1483.44 115.769V120H1452.84V115.769L1454.45 114.172H1455.66V112.657L1456.95 111.22H1479.33Z"
            fill="#F8F5F1" />
    </g>
    <defs>
        <clipPath id="clip0_1254_14848">
            <rect width="48" height="48" fill="white" transform="matrix(-1 0 0 1 60 0)" />
        </clipPath>
        <clipPath id="clip1_1254_14848">
            <rect width="48" height="48" fill="white" transform="matrix(-1 0 0 1 132 0)" />
        </clipPath>
        <clipPath id="clip2_1254_14848">
            <rect width="48" height="48" fill="white" transform="matrix(-1 0 0 1 204 0)" />
        </clipPath>
        <clipPath id="clip3_1254_14848">
            <rect width="48" height="48" fill="white" transform="matrix(-1 0 0 1 276 0)" />
        </clipPath>
        <clipPath id="clip4_1254_14848">
            <rect width="48" height="48" fill="white" transform="matrix(-1 0 0 1 348 0)" />
        </clipPath>
        <clipPath id="clip5_1254_14848">
            <rect width="48" height="48" fill="white" transform="matrix(-1 0 0 1 420 0)" />
        </clipPath>
        <clipPath id="clip6_1254_14848">
            <rect width="48" height="48" fill="white" transform="matrix(-1 0 0 1 492 0)" />
        </clipPath>
        <clipPath id="clip7_1254_14848">
            <rect width="48" height="48" fill="white" transform="matrix(-1 0 0 1 564 0)" />
        </clipPath>
        <clipPath id="clip8_1254_14848">
            <rect width="48" height="48" fill="white" transform="matrix(-1 0 0 1 636 0)" />
        </clipPath>
        <clipPath id="clip9_1254_14848">
            <rect width="48" height="48" fill="white" transform="matrix(-1 0 0 1 708 0)" />
        </clipPath>
        <clipPath id="clip10_1254_14848">
            <rect width="48" height="48" fill="white" transform="matrix(-1 0 0 1 780 0)" />
        </clipPath>
        <clipPath id="clip11_1254_14848">
            <rect width="48" height="48" fill="white" transform="matrix(-1 0 0 1 852 0)" />
        </clipPath>
        <clipPath id="clip12_1254_14848">
            <rect width="48" height="48" fill="white" transform="matrix(-1 0 0 1 924 0)" />
        </clipPath>
        <clipPath id="clip13_1254_14848">
            <rect width="48" height="48" fill="white" transform="matrix(-1 0 0 1 996 0)" />
        </clipPath>
        <clipPath id="clip14_1254_14848">
            <rect width="48" height="48" fill="white" transform="matrix(-1 0 0 1 1068 0)" />
        </clipPath>
        <clipPath id="clip15_1254_14848">
            <rect width="48" height="48" fill="white" transform="matrix(-1 0 0 1 1140 0)" />
        </clipPath>
        <clipPath id="clip16_1254_14848">
            <rect width="48" height="48" fill="white" transform="matrix(-1 0 0 1 1212 0)" />
        </clipPath>
        <clipPath id="clip17_1254_14848">
            <rect width="48" height="48" fill="white" transform="matrix(-1 0 0 1 1284 0)" />
        </clipPath>
        <clipPath id="clip18_1254_14848">
            <rect width="48" height="48" fill="white" transform="matrix(-1 0 0 1 1356 0)" />
        </clipPath>
        <clipPath id="clip19_1254_14848">
            <rect width="48" height="48" fill="white" transform="matrix(-1 0 0 1 1428 0)" />
        </clipPath>
        <clipPath id="clip20_1254_14848">
            <rect width="48" height="48" fill="white" transform="matrix(-1 0 0 1 1500 0)" />
        </clipPath>
        <clipPath id="clip21_1254_14848">
            <rect width="48" height="48" fill="white" transform="matrix(-1 0 0 1 60 72)" />
        </clipPath>
        <clipPath id="clip22_1254_14848">
            <rect width="48" height="48" fill="white" transform="matrix(-1 0 0 1 132 72)" />
        </clipPath>
        <clipPath id="clip23_1254_14848">
            <rect width="48" height="48" fill="white" transform="matrix(-1 0 0 1 204 72)" />
        </clipPath>
        <clipPath id="clip24_1254_14848">
            <rect width="48" height="48" fill="white" transform="matrix(-1 0 0 1 276 72)" />
        </clipPath>
        <clipPath id="clip25_1254_14848">
            <rect width="48" height="48" fill="white" transform="matrix(-1 0 0 1 348 72)" />
        </clipPath>
        <clipPath id="clip26_1254_14848">
            <rect width="48" height="48" fill="white" transform="matrix(-1 0 0 1 420 72)" />
        </clipPath>
        <clipPath id="clip27_1254_14848">
            <rect width="48" height="48" fill="white" transform="matrix(-1 0 0 1 492 72)" />
        </clipPath>
        <clipPath id="clip28_1254_14848">
            <rect width="48" height="48" fill="white" transform="matrix(-1 0 0 1 564 72)" />
        </clipPath>
        <clipPath id="clip29_1254_14848">
            <rect width="48" height="48" fill="white" transform="matrix(-1 0 0 1 636 72)" />
        </clipPath>
        <clipPath id="clip30_1254_14848">
            <rect width="48" height="48" fill="white" transform="matrix(-1 0 0 1 708 72)" />
        </clipPath>
        <clipPath id="clip31_1254_14848">
            <rect width="48" height="48" fill="white" transform="matrix(-1 0 0 1 780 72)" />
        </clipPath>
        <clipPath id="clip32_1254_14848">
            <rect width="48" height="48" fill="white" transform="matrix(-1 0 0 1 852 72)" />
        </clipPath>
        <clipPath id="clip33_1254_14848">
            <rect width="48" height="48" fill="white" transform="matrix(-1 0 0 1 924 72)" />
        </clipPath>
        <clipPath id="clip34_1254_14848">
            <rect width="48" height="48" fill="white" transform="matrix(-1 0 0 1 996 72)" />
        </clipPath>
        <clipPath id="clip35_1254_14848">
            <rect width="48" height="48" fill="white" transform="matrix(-1 0 0 1 1068 72)" />
        </clipPath>
        <clipPath id="clip36_1254_14848">
            <rect width="48" height="48" fill="white" transform="matrix(-1 0 0 1 1140 72)" />
        </clipPath>
        <clipPath id="clip37_1254_14848">
            <rect width="48" height="48" fill="white" transform="matrix(-1 0 0 1 1212 72)" />
        </clipPath>
        <clipPath id="clip38_1254_14848">
            <rect width="48" height="48" fill="white" transform="matrix(-1 0 0 1 1284 72)" />
        </clipPath>
        <clipPath id="clip39_1254_14848">
            <rect width="48" height="48" fill="white" transform="matrix(-1 0 0 1 1356 72)" />
        </clipPath>
        <clipPath id="clip40_1254_14848">
            <rect width="48" height="48" fill="white" transform="matrix(-1 0 0 1 1428 72)" />
        </clipPath>
        <clipPath id="clip41_1254_14848">
            <rect width="48" height="48" fill="white" transform="matrix(-1 0 0 1 1500 72)" />
        </clipPath>
    </defs>
</svg>
    