<svg width="220" height="220" viewBox="0 0 220 220" fill="none" xmlns="http://www.w3.org/2000/svg">
    <path d="M97.2402 69.1211L148.238 18.9116L200.897 71.0811L149.9 121.311L97.2402 69.1211Z"
        fill="#B69D74" />
    <path
        d="M92.9273 61.0727C89.8346 64.1169 84.8274 64.1169 81.7348 61.0727L81.293 60.6348C78.4317 57.799 78.6211 53.5454 80.7881 50.1675C93.306 30.6509 114.345 10.2168 130.123 1.48019C133.637 -0.458963 137.802 -0.730028 140.622 2.08487L141.19 2.64785C144.24 5.67126 144.219 10.5713 141.169 13.5738L92.9273 61.0935V61.0727Z"
        fill="#B69D74" />
    <path
        d="M158.042 125.607C154.949 128.651 154.928 133.593 158.021 136.658L158.462 137.096C161.324 139.931 165.616 139.764 169.066 137.617C188.821 125.315 209.565 104.609 218.464 89.0337C220.442 85.5724 220.737 81.4648 217.896 78.6499L217.328 78.0869C214.278 75.0635 209.334 75.0635 206.262 78.0869L158.021 125.607H158.042Z"
        fill="#B69D74" />
    <path
        d="M5.99618 210.992C5.00737 210.513 4.60764 209.407 3.72402 208.74C1.19939 205.383 -0.126035 201.276 0.000196701 197.043C0.126428 191.872 2.39859 186.993 6.29072 183.531L109.106 93.7881L117.164 101.524L124.969 109.51L33.8091 210.804C30.2957 214.62 25.3306 216.851 20.113 216.976C15.8212 217.081 11.6766 215.746 8.26834 213.244C7.61615 212.368 6.50111 211.972 5.99618 210.992Z"
        fill="#B69D74" />
    <path
        d="M94.7365 179.757L88.8246 186.346V193.29H83.2915L75.907 200.608V220H216.129V200.608L208.744 193.29H203.211V186.346L197.32 179.757H94.7365Z"
        fill="#008f59" />
</svg>