<svg width="48" height="48" viewBox="0 0 48 48" fill="none" xmlns="http://www.w3.org/2000/svg">
    <path d="M26.7839 15.0813L15.6572 4.12646L4.16789 15.5089L15.2946 26.4682L26.7839 15.0813Z"
        fill="#38404F" />
    <path
        d="M27.7249 13.325C28.3997 13.9892 29.4922 13.9892 30.1669 13.325L30.2633 13.2295C30.8876 12.6107 30.8463 11.6827 30.3735 10.9457C27.6423 6.68751 23.0521 2.22917 19.6094 0.322995C18.8429 -0.100093 17.934 -0.159234 17.3189 0.454926L17.195 0.577757C16.5294 1.23741 16.534 2.3065 17.1996 2.96161L27.7249 13.3295V13.325Z"
        fill="#38404F" />
    <path
        d="M13.5182 27.4051C14.193 28.0694 14.1976 29.1475 13.5228 29.8163L13.4264 29.9118C12.8022 30.5305 11.8658 30.4941 11.113 30.0256C6.80274 27.3415 2.27678 22.824 0.335111 19.4256C-0.0963707 18.6704 -0.160636 17.7742 0.459044 17.1601L0.582979 17.0372C1.24856 16.3776 2.32727 16.3776 2.99744 17.0372L13.5228 27.4051H13.5182Z"
        fill="#38404F" />
    <path
        d="M46.6917 46.0347C46.9074 45.93 46.9946 45.6889 47.1874 45.5434C47.7383 44.8109 48.0274 43.9147 47.9999 42.9912C47.9724 41.8629 47.4766 40.7984 46.6274 40.0432L24.195 20.4629L22.4369 22.1507L20.734 23.8931L40.6234 45.9937C41.39 46.8263 42.4733 47.313 43.6117 47.3403C44.5481 47.3631 45.4523 47.0719 46.1959 46.526C46.3382 46.3349 46.5815 46.2485 46.6917 46.0347Z"
        fill="#38404F" />
    <path
        d="M27.3302 39.2197L28.6201 40.6573V42.1722H29.8273L31.4385 43.7691V47.9999H0.844614V43.7691L2.45579 42.1722H3.66302V40.6573L4.94828 39.2197H27.3302Z"
        fill="#008f59" />
</svg>
    